<svg xmlns="http://www.w3.org/2000/svg" width="246.729" height="57.625" viewBox="0 0 246.729 57.625">
  <g id="그룹_420" data-name="그룹 420" transform="translate(-363.616 -104.994)">
    <path id="패스_1" data-name="패스 1" d="M-1913.774,1233.044c0,2.506-2.445,4.534-5.457,4.534h-233.815c-3.012,0-5.457-2.028-5.457-4.534v-46.558c0-2.5,2.445-4.534,5.457-4.534h233.815c3.012,0,5.457,2.03,5.457,4.534Z" transform="translate(2523.119 -1075.959)" fill="#fff" stroke="#4fbcbd" stroke-miterlimit="10" stroke-width="2"/>
    <path id="패스_2" data-name="패스 2" d="M-1922.593,1181.953H-2039.5v55.625h116.908c3.012,0,5.457-2.028,5.457-4.534v-46.558C-1917.136,1183.983-1919.581,1181.953-1922.593,1181.953Z" transform="translate(2526.48 -1075.959)" fill="#4fbcbd"/>
    <g id="그룹_2" data-name="그룹 2" transform="translate(527.856 122.067)">
      <path id="패스_6" data-name="패스 6" d="M-1984,1221.043V1209.7h-13.482v11.245h-2.269v-23.358h2.269v10.075H-1984v-10.075h2.266v23.458Z" transform="translate(1999.747 -1197.585)" fill="#fff"/>
      <path id="패스_7" data-name="패스 7" d="M-1965,1205.834a9.588,9.588,0,0,1,2.251,6.507,9.672,9.672,0,0,1-2.251,6.489,7.608,7.608,0,0,1-6.123,2.655,7.52,7.52,0,0,1-6.073-2.655,9.719,9.719,0,0,1-2.236-6.489,9.635,9.635,0,0,1,2.236-6.507,7.587,7.587,0,0,1,6.073-2.6A7.677,7.677,0,0,1-1965,1205.834Zm-1.818,11.594a7.9,7.9,0,0,0,1.636-5.088,7.82,7.82,0,0,0-1.636-5.088,5.276,5.276,0,0,0-4.305-2.021,5.192,5.192,0,0,0-4.254,2.021,7.886,7.886,0,0,0-1.618,5.088,7.967,7.967,0,0,0,1.618,5.088,5.154,5.154,0,0,0,4.254,2.055A5.236,5.236,0,0,0-1966.819,1217.429Z" transform="translate(2000.321 -1197.425)" fill="#fff"/>
      <path id="패스_8" data-name="패스 8" d="M-1957.8,1205.731v11.011c0,.445.006.816.019,1.117a1.13,1.13,0,0,0,.449.82,1.64,1.64,0,0,0,.934.4,7.912,7.912,0,0,0,.935.068v1.839h-1.8a2.266,2.266,0,0,1-1.3-.386,3.734,3.734,0,0,1-.936-.885,2.531,2.531,0,0,1-.469-1.083,10.239,10.239,0,0,1-.1-1.62v-11.278h-2.136V1203.9h2.136v-5.272h2.268v5.272h2.469v1.835Z" transform="translate(2000.807 -1197.556)" fill="#fff"/>
    </g>
    <text id="New" transform="translate(424.55 145.036)" fill="#595a5d" font-size="35" font-family="YDIYGO320"><tspan x="-33.985" y="0">New</tspan></text>
  </g>
</svg>
