<svg xmlns="http://www.w3.org/2000/svg" width="29.57" height="29.495" viewBox="0 0 29.57 29.495">
  <g id="그룹_441" data-name="그룹 441" transform="translate(-1291.5 88.336)">
    <g id="그룹_35" data-name="그룹 35" transform="translate(1292 -87.778)">
      <path id="패스_70" data-name="패스 70" d="M106.483,678.939c.028-.1.058-.193.08-.293a3.156,3.156,0,0,1,1.049-1.733,13.385,13.385,0,0,0,4.627-8.73,37.989,37.989,0,0,0,.323-4.53,7.974,7.974,0,0,1,4.211-7.081,8.188,8.188,0,0,1,12.076,5.78c.158,1.021.123,2.075.178,3.116a19.134,19.134,0,0,0,1.566,7.167,11.44,11.44,0,0,0,2.845,3.82,4.3,4.3,0,0,1,1.615,2.485v.669a1.164,1.164,0,0,1-1.226.7c-2.733-.019-5.467-.008-8.2-.008h-.353a4.6,4.6,0,0,1-9.006,0h-.356c-2.733,0-5.469-.011-8.2.008a1.162,1.162,0,0,1-1.226-.7Zm2.435-.526H132.8c-.159-.141-.273-.248-.389-.349a14.688,14.688,0,0,1-4.067-6.008,23.327,23.327,0,0,1-1.215-7.251c-.02-.632,0-1.267-.075-1.894a6.349,6.349,0,0,0-12.641.914,27.9,27.9,0,0,1-.569,5.954,15.061,15.061,0,0,1-3.627,7.2C109.767,677.472,109.32,677.971,108.918,678.413Zm9.349,1.9a2.633,2.633,0,0,0,2.619,1.749,2.6,2.6,0,0,0,2.377-1.749Z" transform="translate(-106.483 -655.509)" fill="#fff" stroke="#fff" stroke-width="1" fill-rule="evenodd"/>
    </g>
    <path id="패스_71" data-name="패스 71" d="M128.82,664.124a4.4,4.4,0,1,0-4.4,4.394A4.4,4.4,0,0,0,128.82,664.124Z" transform="translate(1190.101 -741.86)" fill="#ee2424" stroke="#fff" stroke-width="1"/>
  </g>
</svg>
