<svg xmlns="http://www.w3.org/2000/svg" width="21.347" height="21.248" viewBox="0 0 21.347 21.248">
  <g id="그룹_354" data-name="그룹 354" transform="translate(-8809.483 -2839.51)">
    <g id="그룹_35" data-name="그룹 35" transform="translate(8703 2184)">
      <path id="패스_70" data-name="패스 70" d="M106.483,673.015c.021-.072.043-.144.06-.219a2.358,2.358,0,0,1,.784-1.3,10,10,0,0,0,3.457-6.523,28.384,28.384,0,0,0,.241-3.385,5.958,5.958,0,0,1,3.146-5.291,6.118,6.118,0,0,1,9.023,4.319c.118.763.092,1.55.133,2.328a14.3,14.3,0,0,0,1.17,5.355,8.548,8.548,0,0,0,2.126,2.854,3.215,3.215,0,0,1,1.207,1.857v.5a.87.87,0,0,1-.916.524c-2.042-.014-4.085-.006-6.128-.006h-.264a3.44,3.44,0,0,1-6.729,0h-.266c-2.042,0-4.086-.008-6.128.006a.868.868,0,0,1-.916-.524Zm1.819-.393h17.846c-.119-.1-.2-.185-.291-.261a10.974,10.974,0,0,1-3.039-4.489,17.429,17.429,0,0,1-.908-5.418c-.015-.472,0-.947-.056-1.415a4.743,4.743,0,0,0-9.445.683,20.846,20.846,0,0,1-.425,4.449,11.253,11.253,0,0,1-2.71,5.381C108.937,671.919,108.6,672.292,108.3,672.622Zm6.985,1.422a1.968,1.968,0,0,0,1.957,1.307,1.945,1.945,0,0,0,1.776-1.307Z" fill="#55b8bd" fill-rule="evenodd"/>
    </g>
  </g>
</svg>
