<svg xmlns="http://www.w3.org/2000/svg" width="67" height="32" viewBox="0 0 67 32">
  <g id="그룹_383" data-name="그룹 383" transform="translate(-8604 -2656)">
    <path id="사각형_133" data-name="사각형 133" d="M4,0H67a0,0,0,0,1,0,0V32a0,0,0,0,1,0,0H4a4,4,0,0,1-4-4V4A4,4,0,0,1,4,0Z" transform="translate(8604 2656)" fill="#fff"/>
    <path id="사각형_134" data-name="사각형 134" d="M3,0H66a0,0,0,0,1,0,0V30a0,0,0,0,1,0,0H3a3,3,0,0,1-3-3V3A3,3,0,0,1,3,0Z" transform="translate(8605 2657)" fill="#55b8bd"/>
    <text id="New" transform="translate(8620.004 2677.573)" fill="#fff" font-size="18" font-family="YDIYGO350"><tspan x="0" y="0">New</tspan></text>
  </g>
</svg>
