<svg xmlns="http://www.w3.org/2000/svg" width="67" height="32" viewBox="0 0 67 32">
  <g id="그룹_381" data-name="그룹 381" transform="translate(-8671 -2648)">
    <path id="사각형_133" data-name="사각형 133" d="M4,0H67a0,0,0,0,1,0,0V32a0,0,0,0,1,0,0H4a4,4,0,0,1-4-4V4A4,4,0,0,1,4,0Z" transform="translate(8738 2680) rotate(180)" fill="#fff"/>
    <path id="사각형_134" data-name="사각형 134" d="M3,0H66a0,0,0,0,1,0,0V30a0,0,0,0,1,0,0H3a3,3,0,0,1-3-3V3A3,3,0,0,1,3,0Z" transform="translate(8737 2679) rotate(180)" fill="#55b8bd"/>
    <text id="Hot" transform="translate(8689.004 2669.573)" fill="#fff" font-size="18" font-family="YDIYGO350"><tspan x="0" y="0">Hot</tspan></text>
  </g>
</svg>
