<svg xmlns="http://www.w3.org/2000/svg" width="101.002" height="105.614" viewBox="0 0 101.002 105.614">
  <g id="그룹_325" data-name="그룹 325" transform="translate(-48.031 -46.71)">
    <g id="그룹_324" data-name="그룹 324" transform="translate(47.847 46.48)">
      <path id="패스_87" data-name="패스 87" d="M-179.655,158.638c0,8.02-.1,15.982,0,24,.025,2.024-.2,4.082-2,5-9.292,4.726-18.738,9.22-28,14-5.633,2.907-11.521,5.827-17,9-2.492,1.444-3.7,1.207-6,0-8.8-4.632-18.176-9.423-27-14-6.4-3.316-12.562-6.763-19-10-1.488-.751-2.005-1.29-2-3q.078-24.5,0-49a3.162,3.162,0,0,1,2-3c10.057-5.378,19.97-11.573,30-17,5.312-2.874,10.717-5.07,16-8a3.546,3.546,0,0,1,4,0c8.425,4.5,16.557,8.535,25,13,7.234,3.829,14.721,8.254,22,12,1.692.869,2.023,2.067,2,4C-179.757,143.558-179.655,150.716-179.655,158.638Z" transform="translate(280.839 -105.79)" fill="#4eacae" fill-rule="evenodd"/>
      <path id="패스_88" data-name="패스 88" d="M-277.638,132c4.345-2.43,8.9-4.771,13-7,10.106-5.5,19.926-10.44,30-16a4.485,4.485,0,0,1,5,0c12.2,6.543,24.751,12.556,37,19,2.643,1.392,5.086,3.407,8,5-2.283,1.267-3.892,1.872-6,3-12.713,6.807-25.315,14.142-38,21a2.777,2.777,0,0,1-3,0c-5.93-3.167-12.064-6.84-18-10-8.341-4.442-16.684-8.51-25-13C-275.386,133.6-276.633,132.629-277.638,132Z" transform="translate(281.823 -105.152)" fill="#fff" fill-rule="evenodd"/>
      <path id="패스_89" data-name="패스 89" d="M-279.159,153.208c0-7.232.085-14.77,0-22-.027-2.266.866-2.182,3-1,8.683,4.811,17.284,9.248,26,14,5.808,3.17,11.136,6.932,17,10,1.059.555,2,.91,2,2-.02,14.56-.029,28.441,0,43,.005,1.881-.336,2.878-2,2-9.044-4.77-18.931-9.272-28-14-4.92-2.564-9.009-5.587-14-8-2.465-1.192-4.111-3.088-4-6C-278.9,166.478-279.159,159.949-279.159,153.208Z" transform="translate(281.343 -99.36)" fill="#fff" fill-rule="evenodd"/>
    </g>
  </g>
</svg>
