<svg xmlns="http://www.w3.org/2000/svg" width="18.068" height="17.159" viewBox="0 0 18.068 17.159">
  <path id="패스_240" data-name="패스 240" d="M152.192,317.672v.991c-.053.342-.085.684-.161,1.021a7.823,7.823,0,0,1-3.56,5.046,9.6,9.6,0,0,1-8.641.993.778.778,0,0,0-.684.041,15.492,15.492,0,0,1-4.622,1.434.341.341,0,0,1-.4-.208v-.177a4.342,4.342,0,0,0,.708-1.066,9.984,9.984,0,0,0,.706-2.952.568.568,0,0,0-.11-.421,7.231,7.231,0,0,1-1.127-2.622c-.075-.358-.12-.728-.177-1.089v-.991c.041-.277.069-.56.124-.834a7.839,7.839,0,0,1,3.2-4.954,9.515,9.515,0,0,1,6.867-1.77,9.193,9.193,0,0,1,5.135,2.242,7.756,7.756,0,0,1,2.578,4.311C152.1,317,152.141,317.338,152.192,317.672Zm-9.039,1.7a1.2,1.2,0,1,0-1.2-1.2A1.195,1.195,0,0,0,143.152,319.372Zm-4.22,0a1.2,1.2,0,1,0-1.2-1.2A1.207,1.207,0,0,0,138.933,319.372Zm8.445,0a1.2,1.2,0,1,0-1.213-1.192A1.207,1.207,0,0,0,147.378,319.376Z" transform="translate(-134.123 -310.046)" fill="#4fbcbd" fill-rule="evenodd"/>
</svg>
