<svg xmlns="http://www.w3.org/2000/svg" width="36.656" height="44.456" viewBox="0 0 36.656 44.456">
  <g id="그룹_450" data-name="그룹 450" transform="translate(0 0)">
    <path id="패스_10" data-name="패스 10" d="M896.955,38.059c-.359-.1-.728-.168-1.092-.251H871.377a1.435,1.435,0,0,1-.243.073,6.775,6.775,0,0,0-5.834,6.73q-.015,11.524.008,23.051a6.808,6.808,0,0,0,6.908,6.8c5.282.013,10.563,0,15.845,0h.547v.571c0,2.014.013,4.025-.005,6.036a1.169,1.169,0,0,0,.663,1.2h.521a5.658,5.658,0,0,0,.505-.4q4.824-4.686,9.639-9.385a6.462,6.462,0,0,0,2.011-4.742q.016-11.611,0-23.219A6.759,6.759,0,0,0,896.955,38.059Z" transform="translate(-865.293 -37.808)" fill="#fff" fill-rule="evenodd"/>
    <path id="패스_11" data-name="패스 11" d="M874.009,47.822a2.724,2.724,0,1,0,2.668,2.739A2.708,2.708,0,0,0,874.009,47.822Z" transform="translate(-855.639 -21.6)" fill="#e26b7f" fill-rule="evenodd"/>
    <path id="패스_12" data-name="패스 12" d="M877.885,42.616a2.775,2.775,0,0,0-2.823-2.925c-.374-.008-.751-.005-1.129,0a2.823,2.823,0,0,0-2.951,3.187c.055.966.092,1.935.136,2.9.17,3.726.333,7.458.513,11.187a2.794,2.794,0,0,0,5.583,0c.131-2.427.236-4.857.351-7.285h-.008c.044-.854.086-1.7.125-2.558C877.754,45.622,877.846,44.119,877.885,42.616Z" transform="translate(-856.095 -34.768)" fill="#e26b7f" fill-rule="evenodd"/>
  </g>
</svg>
