<svg xmlns="http://www.w3.org/2000/svg" width="36.656" height="35.176" viewBox="0 0 36.656 35.176">
  <g id="그룹_449" data-name="그룹 449" transform="translate(0 0)">
    <path id="패스_13" data-name="패스 13" d="M865.847,42.481a6.383,6.383,0,0,0-6.163-4.659q-11.914-.024-23.827,0a6.394,6.394,0,0,0-6.352,5.53,1.975,1.975,0,0,1-.063.24V59.629c.057.264.112.53.175.792a6.429,6.429,0,0,0,6.32,4.933q7.351.012,14.705,0a.867.867,0,0,1,.682.286c2.276,2.293,4.569,4.573,6.848,6.864a1.352,1.352,0,0,0,1.283.455,1.247,1.247,0,0,0,1-1.04,3.9,3.9,0,0,0,.031-.534q0-2.812,0-5.619v-.406a14.678,14.678,0,0,0,1.529-.451,6.341,6.341,0,0,0,4.017-5.083c.014-.067.047-.13.065-.195V43.591C866.013,43.222,865.951,42.844,865.847,42.481ZM852.708,56.69H847.73q-4.667,0-9.338,0a1.279,1.279,0,0,1-1.289-1.714,1.248,1.248,0,0,1,1.094-.849,1.735,1.735,0,0,1,.252-.006h18.644a1.3,1.3,0,0,1,1.411,1.135,1.283,1.283,0,0,1-1.326,1.434C855.687,56.7,854.2,56.69,852.708,56.69ZM838.5,46.926h18.537c.932,0,1.517.54,1.474,1.361a1.264,1.264,0,0,1-1.135,1.186,4.256,4.256,0,0,1-.426.012h-9.2q-4.67,0-9.342,0a1.275,1.275,0,0,1-1.383-1.34,1.261,1.261,0,0,1,1.117-1.2A2.918,2.918,0,0,1,838.5,46.926Z" transform="translate(-829.441 -37.808)" fill="#fff" fill-rule="evenodd"/>
    <path id="패스_14" data-name="패스 14" d="M843.883,48.412q-4.667,0-9.338,0a1.279,1.279,0,0,1-1.29-1.714,1.248,1.248,0,0,1,1.094-.849,1.735,1.735,0,0,1,.252-.006h18.645a1.3,1.3,0,0,1,1.411,1.135,1.283,1.283,0,0,1-1.326,1.434c-1.493.008-2.981,0-4.472,0Z" transform="translate(-825.593 -29.53)" fill="#55b8bd" fill-rule="evenodd"/>
    <path id="패스_15" data-name="패스 15" d="M843.9,44.857q-4.67,0-9.342,0a1.275,1.275,0,0,1-1.383-1.34,1.261,1.261,0,0,1,1.117-1.2,2.919,2.919,0,0,1,.353-.016h18.537c.932,0,1.517.54,1.474,1.361a1.264,1.264,0,0,1-1.135,1.186,4.254,4.254,0,0,1-.426.012Z" transform="translate(-825.59 -33.18)" fill="#55b8bd" fill-rule="evenodd"/>
  </g>
</svg>
