<svg xmlns="http://www.w3.org/2000/svg" width="75.317" height="74.978" viewBox="0 0 75.317 74.978">
  <g id="그룹_32" data-name="그룹 32" transform="translate(0 0)">
    <path id="패스_67" data-name="패스 67" d="M185.4,665.236a22.236,22.236,0,0,1,1.386-3.586,8.651,8.651,0,0,1,7.54-4.522c5.659-.094,11.326-.045,16.985-.029a1.865,1.865,0,0,1,2,1.889,1.9,1.9,0,0,1-2.065,1.84q-8.022.012-16.037,0a5.649,5.649,0,0,0-6.06,6q-.006,24.086,0,48.171a5.643,5.643,0,0,0,6.015,5.974q25.925.012,51.851,0a5.669,5.669,0,0,0,6.035-6.031q.006-8.016,0-16.028A1.85,1.85,0,0,1,255,696.835a1.819,1.819,0,0,1,1.762,1.656c.008.119.012.237.012.364,0,5.561.049,11.126-.012,16.691a9.278,9.278,0,0,1-9.02,9.147c-.315.016-.634.016-.953.016q-25.7,0-51.406.025a9.647,9.647,0,0,1-8.3-4.052,10.754,10.754,0,0,1-1.681-4.257Z" transform="translate(-185.401 -649.755)" fill="#4fbcbd" fill-rule="evenodd"/>
    <path id="패스_68" data-name="패스 68" d="M245.385,665.954a8.377,8.377,0,0,1-2.253,5.724c-.769.826-1.582,1.607-2.38,2.4q-15.444,15.456-30.9,30.883a4.059,4.059,0,0,1-1.656,1c-5.033,1.439-10.083,2.821-15.137,4.216-.115.033-.229.073-.352.1a1.865,1.865,0,0,1-2.269-2.3c1.435-5.287,2.915-10.566,4.391-15.845a2.547,2.547,0,0,1,.654-1.039q16.578-16.6,33.173-33.181a8.376,8.376,0,0,1,12.226.041,39.075,39.075,0,0,1,2.826,2.993A7.963,7.963,0,0,1,245.385,665.954Zm-18.609-.712c-9.065,9.073-18.163,18.163-27.2,27.187,2.891,2.883,5.81,5.814,8.681,8.681,9.041-9.041,18.138-18.138,27.191-27.187C232.579,671.049,229.676,668.142,226.777,665.243Zm11.535,5.933c.691-.679,1.431-1.349,2.1-2.1a4.634,4.634,0,0,0-.057-6.334c-.769-.822-1.57-1.615-2.388-2.388a4.587,4.587,0,0,0-3.852-1.247c-2.171.258-3.247,1.987-4.6,3.259C232.489,665.341,235.392,668.248,238.312,671.176Zm-33.791,31.938c-2.351-2.331-4.649-4.624-6.939-6.91-.855,3.091-1.738,6.264-2.65,9.568C198.228,704.856,201.4,703.985,204.521,703.114Z" transform="translate(-170.068 -655.282)" fill="#4fbcbd" fill-rule="evenodd"/>
  </g>
</svg>
