<svg xmlns="http://www.w3.org/2000/svg" width="27.216" height="33.403" viewBox="0 0 27.216 33.403">
  <g id="그룹_2" data-name="그룹 2" transform="translate(-47.503 -0.976)">
    <path id="패스_1" data-name="패스 1" d="M585.26.976H591.8c1.778.425,2.176,1.845,2.427,3.4h1.541q3.137,0,6.274,0c.444,0,.682.2.681.569s-.236.552-.69.556c-.25,0-.5.012-.751,0-.216-.013-.286.076-.29.282-.011.5-.038,1-.058,1.5q-.29,7.037-.581,14.075c-.144,3.443-.282,6.886-.443,10.328a2.692,2.692,0,0,1-2.839,2.7q-7.957,0-15.913,0a3.461,3.461,0,0,1-.871-.1,2.735,2.735,0,0,1-1.961-2.637c-.036-.771-.066-1.542-.1-2.313q-.377-9.09-.754-18.181c-.073-1.749-.154-3.5-.215-5.246-.01-.3-.091-.432-.412-.4a4.683,4.683,0,0,1-.816,0,.546.546,0,0,1-.47-.783.625.625,0,0,1,.65-.337q3.153.006,6.306,0h.376c.016-.127.024-.2.036-.277C583.155,2.646,583.655,1.4,585.26.976Zm4.424,18.985q0-4.532,0-9.064a2.4,2.4,0,0,0-.015-.39.561.561,0,0,0-1.106,0,1.428,1.428,0,0,0-.014.26q0,9.178,0,18.357c0,.455.217.73.565.731s.565-.273.57-.727c0-.087,0-.174,0-.261Zm-5.671,0q0-4.549,0-9.1a1.536,1.536,0,0,0-.047-.449.5.5,0,0,0-.552-.368.519.519,0,0,0-.518.456,1.482,1.482,0,0,0-.018.26q0,9.179,0,18.359c0,.462.212.727.565.729s.566-.269.572-.725c0-.087,0-.174,0-.261Q584.013,24.412,584.013,19.961Zm11.345,0q0-4.516,0-9.033a2.8,2.8,0,0,0-.019-.423.556.556,0,0,0-1.08-.067,1.533,1.533,0,0,0-.037.419q0,9.081,0,18.163a2.416,2.416,0,0,0,.007.293.574.574,0,0,0,.559.535.565.565,0,0,0,.56-.53,3.413,3.413,0,0,0,.011-.391Q595.358,24.446,595.357,19.962ZM584.048,4.348h9a3.678,3.678,0,0,0-.46-1.535,1.345,1.345,0,0,0-1.236-.712q-2.81,0-5.62,0a1.254,1.254,0,0,0-.974.383A3.107,3.107,0,0,0,584.048,4.348Z" transform="translate(-528 0)" fill="#ced0d3" fill-rule="evenodd"/>
  </g>
</svg>
