<svg xmlns="http://www.w3.org/2000/svg" width="33.443" height="33.574" viewBox="0 0 33.443 33.574">
  <g id="그룹_1" data-name="그룹 1" transform="translate(-0.977)">
    <path id="패스_2" data-name="패스 2" d="M379.381,5.706a7.7,7.7,0,0,1-2.919,3l-5.746-5.783A17.146,17.146,0,0,1,373.634,0h.457a6.126,6.126,0,0,1,.725.348,11.058,11.058,0,0,1,4.565,4.9Z" transform="translate(-344.961)" fill="#ced0d3" fill-rule="evenodd"/>
    <path id="패스_3" data-name="패스 3" d="M.977,398.056c.174-.7.357-1.4.521-2.11.4-1.725.794-3.453,1.182-5.142l5.672,5.671c-.827.193-1.689.4-2.552.6q-2.288.531-4.577,1.061a.56.56,0,0,0-.115.056Z" transform="translate(0 -364.612)" fill="#ced0d3" fill-rule="evenodd"/>
    <path id="패스_5" data-name="패스 5" d="M56.242,51.854l3.9,3.909L38.052,77.942l-3.891-3.91Z" transform="translate(-30.96 -48.379)" fill="#ced0d3" fill-rule="evenodd"/>
    <path id="패스_6" data-name="패스 6" d="M125.337,121.338l1.02,1.021-22.092,22.184-1.019-1.021Z" transform="translate(-95.415 -113.206)" fill="#ced0d3" fill-rule="evenodd"/>
  </g>
</svg>
