<svg xmlns="http://www.w3.org/2000/svg" width="125.38" height="59.625" viewBox="0 0 125.38 59.625">
  <g id="그룹_432" data-name="그룹 432" transform="translate(-545.965 263.006)">
    <path id="패스_242" data-name="패스 242" d="M-1915.432,1233.044c0,2.506-2.412,4.534-5.383,4.534H-2036.8l.117-14.952-.12-40.113,0-.56h115.985c2.971,0,5.383,2.03,5.383,4.534Z" transform="translate(2584.777 -1442.959)" fill="#4fbcbd" stroke="#4fbcbd" stroke-miterlimit="10" stroke-width="4"/>
    <g id="그룹_421" data-name="그룹 421" transform="translate(-0.999 -64)">
      <path id="패스_2" data-name="패스 2" d="M-1921.638,1181.953H-2039.5v55.625h117.862c3.036,0,5.5-2.028,5.5-4.534v-46.558C-1916.137,1183.983-1918.6,1181.953-1921.638,1181.953Z" transform="translate(2586.48 -1378.959)" fill="#fff"/>
      <g id="그룹_3" data-name="그룹 3" transform="translate(588.387 -180.933)">
        <g id="그룹_2" data-name="그룹 2">
          <path id="패스_6" data-name="패스 6" d="M-1984,1221.043V1209.7h-13.482v11.245h-2.269v-23.358h2.269v10.075H-1984v-10.075h2.266v23.458Z" transform="translate(1999.747 -1197.585)" fill="#595a5d"/>
          <path id="패스_7" data-name="패스 7" d="M-1965,1205.834a9.588,9.588,0,0,1,2.251,6.507,9.672,9.672,0,0,1-2.251,6.489,7.608,7.608,0,0,1-6.123,2.655,7.52,7.52,0,0,1-6.073-2.655,9.719,9.719,0,0,1-2.236-6.489,9.635,9.635,0,0,1,2.236-6.507,7.587,7.587,0,0,1,6.073-2.6A7.677,7.677,0,0,1-1965,1205.834Zm-1.818,11.594a7.9,7.9,0,0,0,1.636-5.088,7.82,7.82,0,0,0-1.636-5.088,5.276,5.276,0,0,0-4.305-2.021,5.192,5.192,0,0,0-4.254,2.021,7.886,7.886,0,0,0-1.618,5.088,7.967,7.967,0,0,0,1.618,5.088,5.154,5.154,0,0,0,4.254,2.055A5.236,5.236,0,0,0-1966.819,1217.429Z" transform="translate(2000.321 -1197.425)" fill="#595a5d"/>
          <path id="패스_8" data-name="패스 8" d="M-1957.8,1205.731v11.011c0,.445.006.816.019,1.117a1.13,1.13,0,0,0,.449.82,1.64,1.64,0,0,0,.934.4,7.912,7.912,0,0,0,.935.068v1.839h-1.8a2.266,2.266,0,0,1-1.3-.386,3.734,3.734,0,0,1-.936-.885,2.531,2.531,0,0,1-.469-1.083,10.239,10.239,0,0,1-.1-1.62v-11.278h-2.136V1203.9h2.136v-5.272h2.268v5.272h2.469v1.835Z" transform="translate(2000.807 -1197.556)" fill="#595a5d"/>
        </g>
      </g>
    </g>
  </g>
</svg>
