<svg xmlns="http://www.w3.org/2000/svg" width="357" height="47" viewBox="0 0 357 47">
  <g id="그룹_444" data-name="그룹 444" transform="translate(-3007 112)">
    <g id="그룹_442" data-name="그룹 442" transform="translate(3040 -101.499)">
      <path id="패스_20" data-name="패스 20" d="M610.2,495.477v.74l-.023.045a2.645,2.645,0,0,1-1.05,1.709.283.283,0,0,0-.029.239,2.651,2.651,0,0,1-.811,3.242.212.212,0,0,0-.071.31,2.573,2.573,0,0,1-.575,3.007.648.648,0,0,0-.2.84,2.652,2.652,0,0,1-2.542,3.443q-7.17.01-14.343,0c-.342,0-.342,0-.342-.339q0-6.748,0-13.5a.578.578,0,0,1,.207-.472c1.67-1.528,3.323-3.078,5-4.593a5.835,5.835,0,0,0,2.006-3.853,1.425,1.425,0,0,1,1.376-1.389,2.943,2.943,0,0,1,2.939,1.482,4.714,4.714,0,0,1,.533,3.653c-.239.94-.63,1.841-.953,2.761-.035.107-.068.216-.119.359h.355c2.009,0,4.014.013,6.02-.016a2.61,2.61,0,0,1,2.516,1.947C610.133,495.218,610.172,495.344,610.2,495.477Z" transform="translate(-583.156 -484.894)" fill="#ced0d3" fill-rule="evenodd"/>
      <path id="패스_21" data-name="패스 21" d="M588.03,488.135a1.051,1.051,0,0,1,1.124-.682c1.059.016,2.112,0,3.172,0a.894.894,0,0,1,1,1v15.664a.887.887,0,0,1-.991.995c-1.053,0-2.112-.019-3.168.007a1.057,1.057,0,0,1-1.133-.662Z" transform="translate(-588.03 -479.19)" fill="#ced0d3" fill-rule="evenodd"/>
    </g>
    <g id="그룹_443" data-name="그룹 443" transform="translate(3175.915 -99.911)">
      <path id="패스_22" data-name="패스 22" d="M660.172,495.708v1.415c-.074.484-.12.972-.226,1.45a11.173,11.173,0,0,1-5.07,7.193,13.7,13.7,0,0,1-12.3,1.411,1.1,1.1,0,0,0-.972.058,22.02,22.02,0,0,1-6.582,2.038.48.48,0,0,1-.572-.3v-.245a6.142,6.142,0,0,0,1.008-1.521,14.35,14.35,0,0,0,1.008-4.2.809.809,0,0,0-.162-.6,10.358,10.358,0,0,1-1.6-3.73c-.107-.51-.168-1.033-.252-1.55v-1.415c.058-.391.1-.795.178-1.185a11.141,11.141,0,0,1,4.56-7.05,13.479,13.479,0,0,1,9.776-2.519,13.085,13.085,0,0,1,7.315,3.188,11.035,11.035,0,0,1,3.669,6.136C660.046,494.748,660.1,495.236,660.172,495.708ZM647.3,498.13a1.7,1.7,0,0,0,1.721-1.689,1.712,1.712,0,1,0-3.423-.019A1.7,1.7,0,0,0,647.3,498.13Zm-6,0a1.712,1.712,0,1,0-1.708-1.708A1.713,1.713,0,0,0,641.3,498.13Zm12.024.007a1.715,1.715,0,1,0-.029-3.43,1.715,1.715,0,0,0,.029,3.43Z" transform="translate(-634.448 -484.853)" fill="#ced0d3" fill-rule="evenodd"/>
    </g>
    <g id="사각형_168" data-name="사각형 168" transform="translate(3007 -112)" fill="none" stroke="#cecece" stroke-width="2">
      <rect width="357" height="47" rx="12" stroke="none"/>
      <rect x="1" y="1" width="355" height="45" rx="11" fill="none"/>
    </g>
    <line id="선_61" data-name="선 61" y1="45" transform="translate(3142.5 -111.5)" fill="none" stroke="#cecece" stroke-width="2"/>
  </g>
</svg>
