<svg xmlns="http://www.w3.org/2000/svg" width="28.584" height="27.411" viewBox="0 0 28.584 27.411">
  <g id="그룹_429" data-name="그룹 429" transform="translate(-410.43 -726.168)">
    <path id="패스_41" data-name="패스 41" d="M-2544.6,1741.815v.781a.258.258,0,0,0-.02.049,2.819,2.819,0,0,1-1.112,1.808c-.048.033-.061.18-.031.25a2.813,2.813,0,0,1-.858,3.431.221.221,0,0,0-.076.324,2.726,2.726,0,0,1-.6,3.178.68.68,0,0,0-.211.888,2.808,2.808,0,0,1-2.687,3.642q-7.579.009-15.157,0c-.365,0-.365,0-.365-.36q0-7.135,0-14.267a.607.607,0,0,1,.221-.5c1.764-1.615,3.51-3.249,5.287-4.848a6.193,6.193,0,0,0,2.119-4.082,1.508,1.508,0,0,1,1.452-1.465,3.116,3.116,0,0,1,3.109,1.572,4.971,4.971,0,0,1,.562,3.855c-.253,1-.667,1.953-1.008,2.925-.036.11-.073.223-.125.378h.372c2.121,0,4.243.016,6.366-.017a2.752,2.752,0,0,1,2.659,2.057C-2544.676,1741.547-2544.636,1741.677-2544.6,1741.815Z" transform="translate(2983.617 -1004.461)" fill="#ced0d3" fill-rule="evenodd"/>
    <path id="패스_42" data-name="패스 42" d="M-2572.982,1739.845a1.112,1.112,0,0,1,1.187-.721c1.118.025,2.235.005,3.352.008a.943.943,0,0,1,1.054,1.051v16.553a.937.937,0,0,1-1.048,1.055c-1.115,0-2.231-.019-3.349.009a1.119,1.119,0,0,1-1.2-.7Z" transform="translate(2983.412 -1004.221)" fill="#ced0d3" fill-rule="evenodd"/>
  </g>
</svg>
