<svg xmlns="http://www.w3.org/2000/svg" width="243.413" height="40.791" viewBox="0 0 243.413 40.791">
  <g id="그룹_436" data-name="그룹 436" transform="translate(-1294 -23.325)">
    <rect id="rectangle" width="243.413" height="40.791" rx="8" transform="translate(1294 23.325)" fill="#fff"/>
    <path id="패스_253" data-name="패스 253" d="M10.438,0H1.682V-14.7H4.994V-2.687h5.445ZM17.1.256a5.644,5.644,0,0,1-4.127-1.471,5.335,5.335,0,0,1-1.5-3.994,5.335,5.335,0,0,1,1.559-4.076,5.889,5.889,0,0,1,4.214-1.471,5.576,5.576,0,0,1,4.1,1.471,5.23,5.23,0,0,1,1.487,3.891A5.552,5.552,0,0,1,21.3-1.261,5.707,5.707,0,0,1,17.1.256Zm.082-8.531a2.161,2.161,0,0,0-1.784.79,3.482,3.482,0,0,0-.636,2.235q0,3.025,2.44,3.025,2.328,0,2.328-3.107Q19.534-8.275,17.186-8.275ZM35.232-1.2a5.94,5.94,0,0,1-1.692,4.527,6.857,6.857,0,0,1-4.9,1.6,7.769,7.769,0,0,1-3.363-.6V1.6a6.441,6.441,0,0,0,3.271.943,3.523,3.523,0,0,0,2.543-.866,3.109,3.109,0,0,0,.9-2.353v-.831h-.041A3.619,3.619,0,0,1,28.68.256a3.934,3.934,0,0,1-3.189-1.415,5.738,5.738,0,0,1-1.179-3.794,6.392,6.392,0,0,1,1.313-4.235,4.285,4.285,0,0,1,3.456-1.569A3.189,3.189,0,0,1,31.951-9.28h.041V-10.5h3.24Zm-3.2-3.845v-.831a2.552,2.552,0,0,0-.59-1.7,1.907,1.907,0,0,0-1.533-.7,1.982,1.982,0,0,0-1.692.841A3.954,3.954,0,0,0,27.6-5.065a3.337,3.337,0,0,0,.584,2.076,1.9,1.9,0,0,0,1.6.764A1.983,1.983,0,0,0,31.413-3,3.174,3.174,0,0,0,32.033-5.045Zm7.547-7.116a1.893,1.893,0,0,1-1.343-.487,1.569,1.569,0,0,1-.523-1.195,1.513,1.513,0,0,1,.523-1.189,1.955,1.955,0,0,1,1.343-.461,1.951,1.951,0,0,1,1.348.461,1.52,1.52,0,0,1,.518,1.189,1.563,1.563,0,0,1-.518,1.21A1.925,1.925,0,0,1,39.58-12.161ZM41.18,0h-3.24V-10.5h3.24ZM54.048,0h-3.23V-5.834q0-2.44-1.743-2.44a1.73,1.73,0,0,0-1.384.646,2.461,2.461,0,0,0-.543,1.641V0h-3.24V-10.5h3.24v1.661h.041a3.713,3.713,0,0,1,3.374-1.917q3.486,0,3.486,4.327Zm33.93-14.7L80.811,2.44H77.919L85.056-14.7ZM111.911-.564V-3.845a6.3,6.3,0,0,0,1.938,1.123,6.229,6.229,0,0,0,2.112.374,4.684,4.684,0,0,0,1.092-.113,2.558,2.558,0,0,0,.779-.313,1.364,1.364,0,0,0,.467-.472,1.177,1.177,0,0,0,.154-.59,1.275,1.275,0,0,0-.246-.769,2.648,2.648,0,0,0-.672-.625,7.018,7.018,0,0,0-1.01-.554q-.584-.267-1.261-.543A6.437,6.437,0,0,1,112.7-8.08a3.828,3.828,0,0,1-.846-2.5,3.985,3.985,0,0,1,.461-1.974,3.919,3.919,0,0,1,1.256-1.359,5.632,5.632,0,0,1,1.841-.784,9.457,9.457,0,0,1,2.215-.251,13.321,13.321,0,0,1,2.035.138,8,8,0,0,1,1.635.426v3.066a4.945,4.945,0,0,0-.8-.451,6.377,6.377,0,0,0-.9-.323,6.844,6.844,0,0,0-.918-.19,6.5,6.5,0,0,0-.866-.062,4.519,4.519,0,0,0-1.025.108,2.63,2.63,0,0,0-.779.3,1.5,1.5,0,0,0-.492.467,1.106,1.106,0,0,0-.174.61,1.165,1.165,0,0,0,.195.661,2.235,2.235,0,0,0,.554.554,5.876,5.876,0,0,0,.872.513q.513.251,1.159.518a12.911,12.911,0,0,1,1.584.784,5.632,5.632,0,0,1,1.2.938,3.655,3.655,0,0,1,.769,1.195,4.221,4.221,0,0,1,.267,1.564,4.189,4.189,0,0,1-.467,2.066,3.788,3.788,0,0,1-1.266,1.354,5.491,5.491,0,0,1-1.861.743,10.756,10.756,0,0,1-2.24.226,12.458,12.458,0,0,1-2.3-.205A6.949,6.949,0,0,1,111.911-.564Zm13.771-11.6a1.893,1.893,0,0,1-1.343-.487,1.569,1.569,0,0,1-.523-1.195,1.513,1.513,0,0,1,.523-1.189,1.955,1.955,0,0,1,1.343-.461,1.951,1.951,0,0,1,1.348.461,1.52,1.52,0,0,1,.518,1.189,1.563,1.563,0,0,1-.518,1.21A1.925,1.925,0,0,1,125.682-12.161ZM127.282,0h-3.24V-10.5h3.24ZM140.3-1.2a5.94,5.94,0,0,1-1.692,4.527,6.857,6.857,0,0,1-4.9,1.6,7.769,7.769,0,0,1-3.363-.6V1.6a6.441,6.441,0,0,0,3.271.943,3.523,3.523,0,0,0,2.543-.866,3.109,3.109,0,0,0,.9-2.353v-.831h-.041A3.619,3.619,0,0,1,133.752.256a3.934,3.934,0,0,1-3.189-1.415,5.738,5.738,0,0,1-1.179-3.794A6.392,6.392,0,0,1,130.7-9.187a4.285,4.285,0,0,1,3.456-1.569,3.189,3.189,0,0,1,2.871,1.477h.041V-10.5h3.24Zm-3.2-3.845v-.831a2.552,2.552,0,0,0-.59-1.7,1.907,1.907,0,0,0-1.533-.7,1.982,1.982,0,0,0-1.692.841,3.954,3.954,0,0,0-.615,2.369,3.337,3.337,0,0,0,.584,2.076,1.9,1.9,0,0,0,1.6.764A1.983,1.983,0,0,0,136.485-3,3.174,3.174,0,0,0,137.1-5.045ZM153.152,0h-3.23V-5.834q0-2.44-1.743-2.44a1.73,1.73,0,0,0-1.384.646,2.461,2.461,0,0,0-.543,1.641V0h-3.24V-10.5h3.24v1.661h.041a3.713,3.713,0,0,1,3.374-1.917q3.486,0,3.486,4.327Zm20.662-6.368q0,6.624-6.173,6.624-5.988,0-5.988-6.47V-14.7h3.322v8.531q0,3.568,2.789,3.568,2.738,0,2.738-3.445V-14.7h3.312Zm6.163,5.147h-.041V4.83H176.7V-10.5h3.24v1.579h.041a3.809,3.809,0,0,1,3.374-1.835,3.8,3.8,0,0,1,3.153,1.4,5.959,5.959,0,0,1,1.113,3.809,6.46,6.46,0,0,1-1.3,4.214,4.229,4.229,0,0,1-3.45,1.589A3.269,3.269,0,0,1,179.977-1.22Zm-.092-4.307v.841a2.673,2.673,0,0,0,.574,1.774,1.869,1.869,0,0,0,1.507.687,1.987,1.987,0,0,0,1.718-.856,4.134,4.134,0,0,0,.61-2.425q0-2.769-2.153-2.769a2.022,2.022,0,0,0-1.625.754A3.006,3.006,0,0,0,179.884-5.527Z" transform="translate(1321.999 50.158)" fill="#302d2c"/>
  </g>
</svg>
