<svg xmlns="http://www.w3.org/2000/svg" width="397.088" height="34.216" viewBox="0 0 397.088 34.216">
  <g id="그룹_436" data-name="그룹 436" transform="translate(10066.037 432.533)">
    <g id="그룹_316" data-name="그룹 316" transform="translate(-9729.022 -651.477)">
      <g id="그룹_46" data-name="그룹 46" transform="translate(-337.015 219.148)">
        <path id="패스_90" data-name="패스 90" d="M-315.215,231.5c-1.846,2.881-3.51,5.469-4.99,8.171a3,3,0,0,1-2.737,1.894,2.919,2.919,0,0,1-2.673-1.971c-1.281-2.85-3.212-5.327-4.813-8.091v17.828c0,1.98-.207,2.165-2.134,2.722a5.6,5.6,0,0,1-3.1-.174,1.758,1.758,0,0,1-1.352-1.846c.011-9.238-.006-18.476.028-27.712.008-1.836.713-2.541,2.5-2.87,2.442-.451,3.852.237,5.236,2.317,1.488,2.233,2.739,4.6,4.12,6.882.716,1.178,1.494,2.342,2.3,3.694.913-1.823,1.969-3.372,2.961-4.964,1.147-1.838,2.2-3.738,3.333-5.59,1.629-2.662,4.234-2.847,6.559-1.951,1.192.462,1.284,1.583,1.295,2.655.025,2.893.008,5.789.008,8.685v18.062c0,2.069-.207,2.286-2.183,2.828a5.443,5.443,0,0,1-3.1-.216,1.813,1.813,0,0,1-1.267-2.023c.035-5.561.015-11.122.015-16.682Z" transform="translate(337.015 -219.08)" fill="#fff" fill-rule="evenodd"/>
        <path id="패스_91" data-name="패스 91" d="M-210.977,231.658a60.38,60.38,0,0,0-4.427,7.064c-.446.767-1.022,1.458-1.544,2.18-.745,1.036-3.38.735-4.038-.562-1.412-2.793-3.046-5.472-4.588-8.2a1.739,1.739,0,0,0-.647-.731v1.3c0,5.651-.042,11.305.029,16.958a2.027,2.027,0,0,1-1.642,2.279,5.925,5.925,0,0,1-3.389.006,1.776,1.776,0,0,1-1.441-1.891c.024-9.33.006-18.659.024-27.986a2.354,2.354,0,0,1,2.374-2.63c2.856-.351,4.056.308,5.551,2.755q2.272,3.711,4.425,7.493c.475.833,1.108,1.618,1.621,2.494.12-.106.244-.168.3-.271,1.7-2.9,3.421-5.784,5.072-8.71a13.086,13.086,0,0,1,2.36-2.939c1.357-1.318,4.7-1.21,5.945.136a2.363,2.363,0,0,1,.543,1.664q0,13.99.008,27.984a1.562,1.562,0,0,1-1.139,1.637,5.032,5.032,0,0,1-2.527.5c-1.846-.234-2.96-.473-2.906-3.07.111-5.284.032-10.57.032-15.854Z" transform="translate(377.951 -219.074)" fill="#fff" fill-rule="evenodd"/>
        <path id="패스_92" data-name="패스 92" d="M-183.508,232.645c0-3.585-.008-7.166.006-10.75.006-1.765.476-2.279,2.233-2.459a8.214,8.214,0,0,1,1.644-.018c1.9.187,2.35.693,2.35,2.623,0,6.57-.142,13.146.046,19.711.152,5.207,3.848,6.5,8.359,4.813,1.422-.533,1.983-1.959,2.058-3.484.3-6.013.06-12.028.134-18.043a23.118,23.118,0,0,0-.025-3.169c-.177-1.416.656-1.98,1.751-2.317a5.949,5.949,0,0,1,3.133-.018,1.923,1.923,0,0,1,1.6,2.186c-.054,6.936-.045,13.877-.022,20.813.02,5.74-3.213,8.808-8.6,9.706a17.335,17.335,0,0,1-8.021-.485c-4.2-1.278-6.431-4.174-6.535-8.231-.092-3.624-.018-7.252-.018-10.879Z" transform="translate(397.233 -219.075)" fill="#fff" fill-rule="evenodd"/>
        <path id="패스_93" data-name="패스 93" d="M-138.379,241.056a11.052,11.052,0,0,1-.639,5.33,8.661,8.661,0,0,1-6.379,5.669,18.614,18.614,0,0,1-11.734-.707,10.825,10.825,0,0,1-3.61-2.626,2.934,2.934,0,0,1,.007-3.468,2.59,2.59,0,0,1,3.52-.968c1.635.792,2.817,2.317,4.71,2.716,2.386.5,4.611.444,6.654-1.111a3.494,3.494,0,0,0,.163-4.858c-2.2-1.863-4.867-2.8-7.458-3.918-3.024-1.3-5.868-2.883-6.787-6.434a14.229,14.229,0,0,1-.234-1.486,2.075,2.075,0,0,1,0-1.977c.342-4.269,2.95-6.3,6.676-7.355a20.258,20.258,0,0,1,11.376.212c2.105.621,2.995,1.746,2.679,3.492-.388,2.146-2,2.992-3.967,1.991a11.432,11.432,0,0,0-7.055-1.112,5.953,5.953,0,0,0-2.977,1.534c-.975.826-.71,2.634.269,3.5,2.115,1.882,4.835,2.491,7.312,3.614,3.222,1.463,6.183,3.225,6.984,7.092C-138.619,240.431-138.61,240.805-138.379,241.056Z" transform="translate(405.944 -219.148)" fill="#fff" fill-rule="evenodd"/>
        <path id="패스_94" data-name="패스 94" d="M-277.565,235.9c0-2.3-.011-4.6,0-6.895.032-5.655,3.6-8.876,8.968-9.52a16.178,16.178,0,0,1,8.117.869c3.957,1.607,6.171,4.4,5.558,8.642a1.856,1.856,0,0,1-1.931,1.753,13.235,13.235,0,0,1-2.191,0c-1.318-.155-2.2-.6-2.349-2.26-.277-3.019-1.983-4.06-5.637-3.82-2.556.166-3.96,1.681-3.983,4.454-.042,4.458-.031,8.915-.006,13.372.013,3.016,1.224,4.44,4.206,4.682,3.432.277,5.161-.785,5.447-4.217a2.193,2.193,0,0,1,1.956-2.2,6.445,6.445,0,0,1,3,.021c1.484.347,1.669,1.654,1.629,2.842-.136,3.9-1.939,6.261-5.917,7.819a15.634,15.634,0,0,1-10.108.44,8.613,8.613,0,0,1-6.744-8.536c-.068-2.48-.011-4.962-.011-7.442Z" transform="translate(360.331 -219.078)" fill="#fff" fill-rule="evenodd"/>
        <path id="패스_95" data-name="패스 95" d="M-298.143,252.208c-2.365,0-3.067-.677-3.067-2.959q0-4.62,0-9.239c0-.827.032-1.64-.791-2.168-.139-.089-.2-.3-.291-.459-2-3.307-3.935-6.657-6.034-9.9-.982-1.515-1.969-3.021-2.883-4.579a1.7,1.7,0,0,1,.672-2.663c2.466-1.318,4.394-1.513,5.852,1.458,1.843,3.762,4.286,7.19,6.048,10.992.343.745.663.622.993,0,.046-.082.095-.157.138-.239,2.026-3.66,4.068-7.31,6.068-10.981a3.8,3.8,0,0,1,6.169-.908,1.619,1.619,0,0,1,.294,2.226c-2.017,3.218-3.918,6.5-6.069,9.635-.93,1.352-1.426,3.069-2.533,4.221-1.658,1.726-1.479,3.7-1.481,5.729q0,3.377,0,6.757C-295.056,251.512-295.758,252.211-298.143,252.208Z" transform="translate(346.993 -219.079)" fill="#fff" fill-rule="evenodd"/>
        <path id="패스_96" data-name="패스 96" d="M-144.691,235.127c-.5-.1-.585-.433-.491-.867C-144.773,234.412-144.523,234.648-144.691,235.127Z" transform="translate(412.256 -213.22)" fill="#fff" fill-rule="evenodd"/>
        <path id="패스_97" data-name="패스 97" d="M-230.346,249.015c-.691-1.948-1.264-3.93-2-5.871-1.493-3.937-2.471-8.052-4.011-11.99-1-2.548-1.5-5.282-2.463-7.847-.6-1.6-.955-3.634-3.177-3.99a7.724,7.724,0,0,0-4.323.338,2.426,2.426,0,0,0-1.577,1.555c-.93,2.931-1.781,5.88-2.924,8.745-1.288,3.236-1.987,6.67-3.287,9.926-1.2,3-1.952,6.189-2.928,9.287a1.744,1.744,0,0,0,.646,2.069,4.85,4.85,0,0,0,3.882.972,1.576,1.576,0,0,0,1.422-1.295c.356-1.724,1.42-3.215,1.686-4.973.1-.656.519-.827,1.17-.806,1.515.053,3.032.017,4.549.017s3.035.049,4.55-.021a1.031,1.031,0,0,1,1.221.9c.44,1.632.938,3.247,1.387,4.876a1.374,1.374,0,0,0,.9,1.11,5.086,5.086,0,0,0,4.551-.745A1.732,1.732,0,0,0-230.346,249.015Zm-16.943-8.539c-.892-.006-.462-.564-.344-.938,1.037-3.22,2.187-6.4,3.018-9.686.213-.833.476-1.648.735-2.537a121.425,121.425,0,0,1,4.131,13.164C-242.321,240.479-244.807,240.487-247.289,240.476Z" transform="translate(368.346 -219.142)" fill="#fff" fill-rule="evenodd"/>
        <path id="패스_98" data-name="패스 98" d="M-183.234,224.907a8.542,8.542,0,0,0-7.264-5.3,90.027,90.027,0,0,0-13.074-.162c-1.668.039-2.07.67-2.073,2.41v27.286c0,2.306.519,2.893,2.832,3.064a7.178,7.178,0,0,0,1.77-.159,1.958,1.958,0,0,0,1.849-2.251c-.077-2.893.011-5.789-.04-8.68-.017-.884.2-1.218,1.136-1.178,1.651.077,3.307.033,4.961.019,4.645-.043,8.514-1.667,10.265-6.2A11.356,11.356,0,0,0-183.234,224.907ZM-194.8,235.266c-1.19-.045-2.384-.039-3.575.006-.674.024-.87-.231-.853-.881.038-1.509.014-3.024.014-4.536,0-1.422.026-2.844-.014-4.265-.02-.682.143-.991.9-.97,1.74.054,3.5-.1,5.224.065,2.953.285,4.166,1.751,4.322,4.462C-188.544,233.247-189.8,235.448-194.8,235.266Z" transform="translate(388.55 -219.093)" fill="#fff" fill-rule="evenodd"/>
      </g>
    </g>
    <rect id="사각형_3" data-name="사각형 3" width="2.399" height="34.216" transform="translate(-9781.471 -432.533)" fill="#fff"/>
    <g id="그룹_435" data-name="그룹 435" transform="translate(-9964.015 -592.328)">
      <path id="패스_241" data-name="패스 241" d="M227.672,174.612c-.056,2.676.143,5.965-.094,9.244a13.711,13.711,0,0,1-3.865,9.225,12.129,12.129,0,0,1-6.011,3.148,19.724,19.724,0,0,1-8.964-.026c-5.264-1.258-8.254-4.689-9.342-9.894a19.245,19.245,0,0,1-.368-3.978c.009-6.091.015-12.182-.013-18.273,0-.642.177-.784.788-.771,1.869.041,3.74.045,5.609,0,.667-.016.885.1.88.843-.038,5.93-.019,11.861-.023,17.792a11.853,11.853,0,0,0,.394,3.168c.948,3.44,3.619,5.191,7.422,4.889,3.844-.3,6.226-2.887,6.276-7.027.072-6.036.034-12.074.042-18.111,0-1.538,0-1.538,1.524-1.538,1.683,0,3.367.024,5.049-.013.555-.012.714.131.709.7C227.657,167.325,227.672,170.665,227.672,174.612Z" transform="translate(0 -2.929)" fill="#fff" fill-rule="evenodd"/>
      <path id="패스_242" data-name="패스 242" d="M432.9,159.8a17.274,17.274,0,0,1,12.095,4.427c.529.485.733.773.129,1.4-1.218,1.268-2.347,2.625-3.469,3.981-.414.5-.644.625-1.216.119a11.347,11.347,0,0,0-7.323-3.177,9.316,9.316,0,0,0-9.569,7.346c-.938,4-.235,7.671,2.738,10.646a9.775,9.775,0,0,0,12.045,1.037,17.3,17.3,0,0,0,2.6-1.988c.247-.224.405-.336.7-.024,1.275,1.329,2.583,2.627,3.876,3.938.244.248.444.423.081.828-6.408,7.155-17.758,6.969-23.962,1.743a16.5,16.5,0,0,1-6.015-11.935c-.685-9.979,6.465-17.912,16.165-18.277C432.151,159.849,432.523,159.818,432.9,159.8Z" transform="translate(-181.841 0)" fill="#fff" fill-rule="evenodd"/>
      <path id="패스_243" data-name="패스 243" d="M641.7,179.661c0-5.208.012-10.415-.015-15.623,0-.611.161-.739.752-.738q11.777.032,23.554,0c.627,0,.8.153.786.784-.047,1.681-.044,3.365,0,5.047.016.614-.131.8-.778.8-5.394-.029-10.789,0-16.183-.033-.653,0-.857.133-.837.817q.079,2.722,0,5.447c-.02.669.214.767.805.765,4.647-.023,9.294.014,13.94-.037.85-.009,1,.247.974,1.017-.059,1.654-.042,3.311,0,4.966.013.544-.163.653-.672.651-4.754-.019-9.508,0-14.261-.026-.623,0-.785.149-.779.776.032,3.738,0,7.478.033,11.216.006.624-.174.739-.752.727-1.9-.038-3.794-.059-5.687.008-.785.028-.89-.256-.887-.94C641.708,190.077,641.7,184.869,641.7,179.661Z" transform="translate(-371.709 -2.943)" fill="#fff" fill-rule="evenodd"/>
    </g>
  </g>
</svg>
