<svg xmlns="http://www.w3.org/2000/svg" width="31.169" height="29.911" viewBox="0 0 31.169 29.911">
  <g id="그룹_447" data-name="그룹 447" transform="translate(-1386.829 -220.952)">
    <path id="패스_13" data-name="패스 13" d="M860.4,41.781a5.428,5.428,0,0,0-5.241-3.961q-10.13-.021-20.261,0a5.437,5.437,0,0,0-5.4,4.7,1.7,1.7,0,0,1-.054.2V56.363c.048.224.095.451.148.673a5.467,5.467,0,0,0,5.374,4.194q6.25.01,12.5,0a.737.737,0,0,1,.58.243c1.936,1.95,3.885,3.889,5.823,5.837a1.15,1.15,0,0,0,1.091.387,1.061,1.061,0,0,0,.85-.884,3.323,3.323,0,0,0,.026-.454q0-2.391,0-4.778v-.345a12.474,12.474,0,0,0,1.3-.383,5.392,5.392,0,0,0,3.416-4.322c.012-.057.04-.111.055-.166V42.726C860.539,42.412,860.486,42.09,860.4,41.781ZM849.225,53.864h-4.232q-3.968,0-7.94,0a1.087,1.087,0,0,1-1.1-1.457,1.061,1.061,0,0,1,.931-.722,1.471,1.471,0,0,1,.214-.005h15.854a1.108,1.108,0,0,1,1.2.965,1.091,1.091,0,0,1-1.128,1.219C851.758,53.869,850.493,53.864,849.225,53.864Zm-12.083-8.3h15.762c.793,0,1.29.459,1.254,1.157a1.075,1.075,0,0,1-.965,1.008,3.615,3.615,0,0,1-.363.01h-7.819q-3.971,0-7.943,0a1.084,1.084,0,0,1-1.176-1.14,1.072,1.072,0,0,1,.95-1.022A2.482,2.482,0,0,1,837.143,45.561Z" transform="translate(557.388 183.144)" fill="#d2d2d2" fill-rule="evenodd"/>
    <path id="패스_14" data-name="패스 14" d="M842.28,48.027q-3.968,0-7.94,0a1.087,1.087,0,0,1-1.1-1.457,1.061,1.061,0,0,1,.931-.722,1.472,1.472,0,0,1,.214-.005h15.854a1.107,1.107,0,0,1,1.2.965,1.091,1.091,0,0,1-1.128,1.219c-1.269.007-2.535,0-3.8,0Z" transform="translate(560.101 188.981)" fill="#fff" fill-rule="evenodd"/>
    <path id="패스_15" data-name="패스 15" d="M842.3,44.474q-3.971,0-7.944,0a1.084,1.084,0,0,1-1.176-1.14,1.072,1.072,0,0,1,.95-1.022,2.484,2.484,0,0,1,.3-.014H850.19c.793,0,1.29.459,1.254,1.157a1.075,1.075,0,0,1-.965,1.008,3.619,3.619,0,0,1-.363.01Z" transform="translate(560.103 186.407)" fill="#fff" fill-rule="evenodd"/>
  </g>
</svg>
