<svg xmlns="http://www.w3.org/2000/svg" width="418.204" height="39.73" viewBox="0 0 418.204 39.73">
  <g id="그룹_455" data-name="그룹 455" transform="translate(-6266 1231.675)">
    <g id="그룹_452" data-name="그룹 452" transform="translate(6266 -1231.675)">
      <path id="패스_147" data-name="패스 147" d="M14.4,0h389.41c7.951,0,14.4,5.208,14.4,11.633V28.1c0,6.425-6.446,11.633-14.4,11.633H14.4C6.446,39.73,0,34.522,0,28.1V11.633C0,5.208,6.446,0,14.4,0Z" fill="#f5f6f7"/>
      <g id="그룹_10" data-name="그룹 10" transform="translate(13.658 7.842)">
        <path id="패스_31" data-name="패스 31" d="M-1982.523,1140.127a1.267,1.267,0,0,1-.267-2.05q1.909-1.992,3.824-3.976c.614-.637,1.224-1.275,1.8-1.867-.422-.694-.877-1.333-1.225-2.028a9.7,9.7,0,0,1,6.622-13.742c.477-.1.968-.157,1.454-.234h1.266c.395.059.789.1,1.179.181a9.429,9.429,0,0,1,6.293,4.211,9.61,9.61,0,0,1-1.483,12.393,9.446,9.446,0,0,1-7.624,2.574A9.368,9.368,0,0,1-1975.1,1134c-.045-.031-.093-.059-.122-.076-.237.223-.48.433-.7.663q-2.426,2.515-4.846,5.044a2.177,2.177,0,0,1-.923.649h-.468C-1982.279,1140.226-1982.407,1140.188-1982.523,1140.127Zm20.005-14.2a7.18,7.18,0,0,0-7.175-7.161,7.171,7.171,0,0,0-7.167,7.188,7.176,7.176,0,0,0,7.171,7.163A7.182,7.182,0,0,0-1962.518,1125.925Z" transform="translate(1983.194 -1116.23)" fill="#f5f6f7" fill-rule="evenodd"/>
      </g>
      <text id="Search_mycampus" data-name="Search mycampus" transform="translate(49.267 25.562)" fill="#f5f6f7" font-size="19" font-family="YDIYGO340"><tspan x="0" y="0">Search mycampus</tspan></text>
    </g>
    <g id="그룹_453" data-name="그룹 453" transform="translate(6279.089 -1224.585)">
      <path id="패스_31-2" data-name="패스 31" d="M-1982.5,1140.881a1.307,1.307,0,0,1-.276-2.115q1.97-2.054,3.944-4.1c.633-.657,1.263-1.315,1.852-1.926-.435-.716-.9-1.375-1.264-2.092a10,10,0,0,1,6.831-14.175c.493-.106,1-.162,1.5-.242h1.306c.407.061.814.106,1.216.187a9.727,9.727,0,0,1,6.491,4.344,9.913,9.913,0,0,1-1.53,12.784,9.744,9.744,0,0,1-7.864,2.655,9.663,9.663,0,0,1-4.545-1.643c-.046-.032-.1-.061-.125-.078-.245.23-.5.446-.724.684q-2.5,2.594-5,5.2a2.246,2.246,0,0,1-.952.669h-.483C-1982.25,1140.984-1982.382,1140.944-1982.5,1140.881Zm20.637-14.65a7.407,7.407,0,0,0-7.4-7.387,7.4,7.4,0,0,0-7.393,7.415,7.4,7.4,0,0,0,7.4,7.389A7.409,7.409,0,0,0-1961.865,1126.231Z" transform="translate(1983.194 -1116.23)" fill="#6d6f72" fill-rule="evenodd"/>
    </g>
  </g>
</svg>
