<svg xmlns="http://www.w3.org/2000/svg" width="35.608" height="32.771" viewBox="0 0 35.608 32.771">
  <g id="그룹_320" data-name="그룹 320" transform="translate(0.5 0.5)">
    <path id="패스_72" data-name="패스 72" d="M257.089,663.682c.064-.213.122-.427.193-.636a3.319,3.319,0,0,1,3.017-2.279c1.475-.047,2.95-.029,4.427-.036.131,0,.26,0,.435,0,0-.592-.007-1.138,0-1.686a12.055,12.055,0,0,1,.08-1.922,3.359,3.359,0,0,1,3.389-2.765q6.828,0,13.654.025c1.926.005,3.85.008,5.779.019a3.42,3.42,0,0,1,3.63,3.642c0,3.968.007,7.934,0,11.9a3.4,3.4,0,0,1-2.911,3.449,10.1,10.1,0,0,1-1.13.06v.392q0,2.584,0,5.17c0,.313-.037.593-.367.721s-.553-.052-.764-.285q-1.277-1.415-2.566-2.825c-.087-.1-.182-.194-.317-.342-.031.25-.044.436-.071.62a3.349,3.349,0,0,1-3.114,2.809c-1.947.063-3.9.046-5.845.055q-1.845.012-3.686.005a.626.626,0,0,0-.522.225q-2.572,2.851-5.157,5.683a3.088,3.088,0,0,1-.305.315.562.562,0,0,1-.917-.34,1.985,1.985,0,0,1-.021-.369v-5.507h-.837c-.844,0-1.689.005-2.536,0a3.4,3.4,0,0,1-3.492-2.855,1.217,1.217,0,0,0-.052-.124Zm8.07,20.255c.03.016.055.032.08.048.079-.1.159-.189.24-.277,1.424-1.568,2.853-3.129,4.269-4.706a1.073,1.073,0,0,1,.879-.387q4.7,0,9.4-.034a2.251,2.251,0,0,0,2.44-2.346q.016-6.015,0-12.032a2.251,2.251,0,0,0-2.4-2.35q-6.418.008-12.839.019-3.276.008-6.555.024a2.269,2.269,0,0,0-2.426,2.433q0,5.964,0,11.925a2.265,2.265,0,0,0,2.357,2.366c1.275,0,2.547,0,3.82,0,.542,0,.739.19.74.727.007.98,0,1.961,0,2.94Zm1.2-23.214c.171,0,.314,0,.46,0q6.639-.008,13.282-.011a3.905,3.905,0,0,1,1.192.183,3.39,3.39,0,0,1,2.331,3.429q.008,4.933,0,9.871a.783.783,0,0,0,.23.6c.645.693,1.275,1.4,1.911,2.1.225.248.45.494.739.81v-.447c0-1.419,0-2.839,0-4.257,0-.51.213-.717.723-.721.316-.005.632,0,.946,0a2.261,2.261,0,0,0,2.374-2.38q.008-5.982,0-11.964a2.817,2.817,0,0,0-.112-.8,2.25,2.25,0,0,0-2.33-1.577q-6.525-.026-13.047-.042c-2.117-.005-4.237-.005-6.355-.011a2.195,2.195,0,0,0-2.321,1.846C266.28,658.45,266.356,659.569,266.356,660.722Z" transform="translate(-257.089 -654.357)" fill="#fff" stroke="#fff" stroke-width="1" fill-rule="evenodd"/>
    <path id="패스_73" data-name="패스 73" d="M269.039,665.992q3.616,0,7.231,0a1.756,1.756,0,0,1,.4.028.562.562,0,0,1,0,1.095,2.011,2.011,0,0,1-.4.029q-7.233,0-14.464,0a2.26,2.26,0,0,1-.3-.013.569.569,0,0,1,.028-1.138c.112-.009.224-.007.337-.007Z" transform="translate(-255.774 -650.42)" fill="#fff" stroke="#fff" stroke-width="1" fill-rule="evenodd"/>
    <path id="패스_74" data-name="패스 74" d="M269.052,668.579h7.231c.554,0,.83.194.832.57s-.282.592-.822.592q-7.247,0-14.5-.005a1.414,1.414,0,0,1-.432-.047.563.563,0,0,1,.088-1.091,2.673,2.673,0,0,1,.4-.019Z" transform="translate(-255.774 -649.545)" fill="#fff" stroke="#fff" stroke-width="1" fill-rule="evenodd"/>
    <path id="패스_75" data-name="패스 75" d="M265.272,664.557h-3.445a2.426,2.426,0,0,1-.368-.013.565.565,0,0,1-.106-1.092,1.288,1.288,0,0,1,.4-.044q3.543-.008,7.087,0a1.14,1.14,0,0,1,.135,0,.6.6,0,0,1,.644.588.584.584,0,0,1-.636.56c-.977.005-1.957,0-2.935,0Z" transform="translate(-255.774 -651.296)" fill="#fff" stroke="#fff" stroke-width="1" fill-rule="evenodd"/>
  </g>
</svg>
