<svg xmlns="http://www.w3.org/2000/svg" width="19.225" height="21.28" viewBox="0 0 19.225 21.28">
  <g id="그룹_353" data-name="그룹 353" transform="translate(-9039.313 -2839.154)">
    <path id="패스_77" data-name="패스 77" d="M345.917,676.433h-8.654c-.773,0-.979-.217-.946-.984a6.51,6.51,0,0,1,5.178-6.014,7.079,7.079,0,0,1,1.332-.115c2.209,0,4.419-.035,6.627.033a6.108,6.108,0,0,1,5.05,2.92,6.217,6.217,0,0,1,1.032,3.295c.026.619-.209.863-.826.863Q350.312,676.434,345.917,676.433Zm8.192-1.373c-.017-.137-.024-.246-.049-.356a5.031,5.031,0,0,0-4.831-4.029c-2.207-.047-4.417-.064-6.625.008a4.905,4.905,0,0,0-4.506,3.066,10.182,10.182,0,0,0-.411,1.311Z" transform="translate(8703 2184)" fill="#55b8bd" fill-rule="evenodd"/>
    <path id="패스_78" data-name="패스 78" d="M339.708,661.328a6.184,6.184,0,1,1,6.269,6.142A6.166,6.166,0,0,1,339.708,661.328Zm6.185,4.519a4.549,4.549,0,1,0,0-9.1,4.549,4.549,0,1,0,0,9.1Z" transform="translate(8703 2184)" fill="#55b8bd" fill-rule="evenodd"/>
  </g>
</svg>
