<svg xmlns="http://www.w3.org/2000/svg" width="26.728" height="29.48" viewBox="0 0 26.728 29.48">
  <g id="그룹_321" data-name="그룹 321" transform="translate(0.499 0.5)">
    <path id="패스_77" data-name="패스 77" d="M349.167,678.843H337.584c-1.035,0-1.31-.29-1.266-1.317a8.713,8.713,0,0,1,6.93-8.049,9.471,9.471,0,0,1,1.783-.154c2.956-.005,5.914-.047,8.869.044a8.174,8.174,0,0,1,6.759,3.908,8.321,8.321,0,0,1,1.381,4.41c.035.829-.28,1.155-1.106,1.155Q355.049,678.845,349.167,678.843Zm10.964-1.838c-.023-.183-.032-.329-.066-.477a6.734,6.734,0,0,0-6.466-5.392c-2.954-.063-5.912-.086-8.867.011a6.565,6.565,0,0,0-6.031,4.1,13.622,13.622,0,0,0-.55,1.755Z" transform="translate(-336.314 -650.364)" fill="#fff" stroke="#fff" stroke-width="1" fill-rule="evenodd"/>
    <path id="패스_78" data-name="패스 78" d="M339.708,663.417a8.276,8.276,0,1,1,8.39,8.22A8.253,8.253,0,0,1,339.708,663.417Zm8.278,6.048a6.088,6.088,0,1,0,0-12.177,6.088,6.088,0,1,0,0,12.177Z" transform="translate(-335.165 -655.154)" fill="#fff" stroke="#fff" stroke-width="1" fill-rule="evenodd"/>
  </g>
</svg>
