<svg xmlns="http://www.w3.org/2000/svg" width="125.38" height="59.625" viewBox="0 0 125.38 59.625">
  <g id="그룹_433" data-name="그룹 433" transform="translate(-677.981 263.006)">
    <path id="패스_251" data-name="패스 251" d="M-1915.432,1233.044c0,2.506-2.412,4.534-5.383,4.534H-2036.8l.117-14.952-.122-40.673h115.985c2.971,0,5.383,2.03,5.383,4.534Z" transform="translate(-1235.451 976.572) rotate(180)" fill="#4fbcbd" stroke="#4fbcbd" stroke-miterlimit="10" stroke-width="4"/>
    <path id="패스_1" data-name="패스 1" d="M-1915.432,1233.044c0,2.506-2.412,4.534-5.383,4.534H-2036.8l0-55.625h115.985c2.971,0,5.383,2.03,5.383,4.534Z" transform="translate(-1235.451 976.572) rotate(180)" fill="#4fbcbd" stroke="#4fbcbd" stroke-miterlimit="10" stroke-width="2"/>
    <path id="패스_247" data-name="패스 247" d="M-13.583.436V-22.927h-2.266V-2.764l-13.3-20.2H-31.78V.4h2.266v-20.13L-16.316.436ZM5.913-7.5q.1-4.766-2.4-7.2a8.216,8.216,0,0,0-5.932-2.433,7.546,7.546,0,0,0-6,2.616,9.55,9.55,0,0,0-2.266,6.482,9.482,9.482,0,0,0,2.3,6.466,7.587,7.587,0,0,0,6,2.633,7.27,7.27,0,0,0,5.232-1.7,9.322,9.322,0,0,0,2.4-3.433H2.714A4.747,4.747,0,0,1,1.081-1.88a5.491,5.491,0,0,1-3.5.983A5.563,5.563,0,0,1-6.384-2.714a6.616,6.616,0,0,1-1.9-4.749ZM-8.217-9.329A6.18,6.18,0,0,1-6.4-13.578a5.544,5.544,0,0,1,3.983-1.583,5.709,5.709,0,0,1,4.083,1.6A5.9,5.9,0,0,1,3.447-9.329Zm38.827-7.2h-2.2l-4.1,13.6h-.2l-4.066-13.6h-2.5L13.479-2.93h-.2l-4.066-13.6H6.947L12.179.436h2.466l4.033-13.164h.2L22.944.436H25.41Z" transform="translate(742 -221.989)" fill="#004481"/>
  </g>
</svg>
