<svg id="그룹_459" data-name="그룹 459" xmlns="http://www.w3.org/2000/svg" width="48.425" height="48.425" viewBox="0 0 48.425 48.425">
  <g id="타원_25" data-name="타원 25" transform="translate(0 0)" fill="#fff" stroke="#9d9b9b" stroke-width="1">
    <ellipse cx="24.213" cy="24.213" rx="24.213" ry="24.213" stroke="none"/>
    <ellipse cx="24.213" cy="24.213" rx="23.713" ry="23.713" fill="none"/>
  </g>
  <g id="그룹_324" data-name="그룹 324" transform="translate(9.729 9.451)">
    <path id="패스_87" data-name="패스 87" d="M-251.708,121.043c0,2.3-.017,4.6.012,6.9a1.164,1.164,0,0,1-.692,1.2c-2.665,1.355-5.32,2.729-7.975,4.1-1.615.833-3.255,1.624-4.826,2.534a1.8,1.8,0,0,1-1.944,0q-3.783-1.992-7.579-3.961-2.752-1.426-5.521-2.82a.974.974,0,0,1-.607-.986q.022-7.026,0-14.052a.856.856,0,0,1,.515-.86q4.326-2.313,8.634-4.656c1.523-.824,3.048-1.646,4.562-2.486a1.229,1.229,0,0,1,1.272.019q3.624,1.934,7.253,3.86c2.074,1.1,4.151,2.192,6.238,3.266a1.093,1.093,0,0,1,.666,1.125C-251.725,116.5-251.708,118.771-251.708,121.043Z" transform="translate(280.839 -105.79)" fill="#4eacae" fill-rule="evenodd"/>
    <path id="패스_88" data-name="패스 88" d="M-277.224,115.078c1.246-.7,2.407-1.361,3.583-2,2.9-1.576,5.81-3.128,8.7-4.722a1.323,1.323,0,0,1,1.456,0c3.5,1.876,7.021,3.7,10.533,5.551.758.4,1.5.82,2.339,1.277-.655.363-1.249.7-1.854,1.028-3.645,1.952-7.3,3.894-10.934,5.86a.761.761,0,0,1-.839-.013c-1.7-.908-3.42-1.782-5.122-2.688-2.392-1.274-4.774-2.565-7.158-3.852C-276.735,115.4-276.936,115.258-277.224,115.078Z" transform="translate(278.543 -107.28)" fill="#fff" fill-rule="evenodd"/>
    <path id="패스_89" data-name="패스 89" d="M-278.962,136.291c0-2.074.016-4.147-.009-6.22-.008-.65.14-.812.752-.473,2.49,1.38,4.994,2.732,7.493,4.1,1.665.909,3.323,1.835,5,2.715a.605.605,0,0,1,.4.626q-.009,6.262,0,12.524c0,.539-.167.643-.644.391q-3.89-2.052-7.793-4.081c-1.411-.735-2.813-1.487-4.245-2.179a1.491,1.491,0,0,1-.982-1.6C-278.911,140.16-278.962,138.224-278.962,136.291Z" transform="translate(279.663 -120.804)" fill="#fff" fill-rule="evenodd"/>
  </g>
</svg>
