<svg xmlns="http://www.w3.org/2000/svg" xmlns:xlink="http://www.w3.org/1999/xlink" width="408" height="820.263" viewBox="0 0 408 820.263">
  <defs>
    <filter id="패스_183" x="1.914" y="0" width="406.086" height="820.263" filterUnits="userSpaceOnUse">
      <feOffset dx="10" dy="10" input="SourceAlpha"/>
      <feGaussianBlur stdDeviation="2.5" result="blur"/>
      <feFlood flood-color="#1a1818" flood-opacity="0.749"/>
      <feComposite operator="in" in2="blur"/>
      <feComposite in="SourceGraphic"/>
    </filter>
    <linearGradient id="linear-gradient" x1="0.488" y1="-0.019" x2="0.513" y2="1.075" gradientUnits="objectBoundingBox">
      <stop offset="0.067" stop-color="#e3e3e3"/>
      <stop offset="0.608" stop-color="#e0e0e0"/>
      <stop offset="0.958" stop-color="#d7d7d7"/>
      <stop offset="1" stop-color="#d6d6d6"/>
    </linearGradient>
    <linearGradient id="linear-gradient-2" x1="0.49" y1="-0.003" x2="0.51" y2="1.003" gradientUnits="objectBoundingBox">
      <stop offset="0" stop-color="#576570"/>
      <stop offset="0.075" stop-color="#5d6c76"/>
      <stop offset="0.539" stop-color="#82959f"/>
      <stop offset="0.837" stop-color="#5d6e7a"/>
      <stop offset="1" stop-color="#4f5f6b"/>
    </linearGradient>
    <linearGradient id="linear-gradient-3" x1="0.5" y1="1" x2="0.5" gradientUnits="objectBoundingBox">
      <stop offset="0" stop-color="#aeb0b3"/>
      <stop offset="0.747" stop-color="#fff" stop-opacity="0"/>
    </linearGradient>
  </defs>
  <g id="그룹_389" data-name="그룹 389" transform="translate(-460.75 -176)">
    <g transform="matrix(1, 0, 0, 1, 460.75, 176)" filter="url(#패스_183)">
      <path id="패스_183-2" data-name="패스 183" d="M-2816.723,883c-28.079,0-50.922-22.634-50.922-50.457V130.7c0-27.825,22.844-50.461,50.922-50.461h286.743c28.077,0,50.92,22.636,50.92,50.461V832.543c0,27.823-22.843,50.457-50.92,50.457Z" transform="translate(2869.56 -80.24)" fill="#929191"/>
    </g>
    <path id="패스_184" data-name="패스 184" d="M-2480.7,832.522c0,26.972-22.073,48.842-49.3,48.842h-286.743c-27.232,0-49.3-21.87-49.3-48.842V130.677c0-26.976,22.073-48.846,49.3-48.846H-2530c27.231,0,49.3,21.87,49.3,48.846Z" transform="translate(3330.33 95.784)" fill="url(#linear-gradient)"/>
    <path id="패스_185" data-name="패스 185" d="M-2485.137,828.833a48.263,48.263,0,0,1-48.165,48.356H-2813.43a48.262,48.262,0,0,1-48.167-48.356V133.942a48.262,48.262,0,0,1,48.167-48.359H-2533.3a48.263,48.263,0,0,1,48.165,48.359Z" transform="translate(3330.39 95.835)" fill="#fff"/>
    <path id="패스_186" data-name="패스 186" d="M-2484.063,248.344c-.051,0-.092.019-.14.022v59.215c.047,0,.089.023.14.023a1.39,1.39,0,0,0,1.526-1.189V249.532A1.39,1.39,0,0,0-2484.063,248.344Z" transform="translate(3335.455 98.019)" fill="none" stroke="#9d9da1" stroke-miterlimit="10" stroke-width="0.5"/>
    <path id="패스_187" data-name="패스 187" d="M-2866.939,322.74c.05,0,.089.018.139.022v55.79c-.05,0-.089.02-.139.02-.843,0-1.526-.5-1.526-1.119V323.862C-2868.465,323.242-2867.782,322.74-2866.939,322.74Z" transform="translate(3330.298 99.017)" fill="none" stroke="#9d9da1" stroke-miterlimit="10" stroke-width="0.5"/>
    <path id="패스_188" data-name="패스 188" d="M-2867.472,321.351c.05,0,.091.019.14.023v57.154c-.049,0-.09.022-.14.022-.843,0-1.526-.514-1.526-1.148V322.5C-2869,321.866-2868.315,321.351-2867.472,321.351Z" transform="translate(3330.291 98.999)" fill="none" stroke="#9d9da1" stroke-miterlimit="10" stroke-width="0.5"/>
    <path id="패스_189" data-name="패스 189" d="M-2867.761,179.628c.05,0,.091.009.138.011v30.883c-.047,0-.088.01-.138.01-.843,0-1.527-.278-1.527-.62V180.248C-2869.287,179.9-2868.6,179.628-2867.761,179.628Z" transform="translate(3330.287 97.097)" fill="none" stroke="#9d9da1" stroke-miterlimit="10" stroke-width="0.5"/>
    <path id="패스_190" data-name="패스 190" d="M-2867.472,249.723c.05,0,.091.019.14.021V304.65c-.049,0-.09.02-.14.02-.843,0-1.526-.493-1.526-1.1V250.827C-2869,250.218-2868.315,249.723-2867.472,249.723Z" transform="translate(3330.291 98.037)" fill="none" stroke="#9d9da1" stroke-miterlimit="10" stroke-width="0.5"/>
    <rect id="사각형_116" data-name="사각형 116" width="345.101" height="608.446" transform="translate(483.687 273.161)" stroke="#818080" stroke-miterlimit="10" stroke-width="0.25" fill="url(#linear-gradient-2)"/>
    <path id="패스_191" data-name="패스 191" d="M-2645.643,129.714a2.851,2.851,0,0,1-2.853,2.852h-55.773a2.851,2.851,0,0,1-2.852-2.852h0a2.851,2.851,0,0,1,2.852-2.853h55.773a2.852,2.852,0,0,1,2.853,2.853Z" transform="translate(3332.463 96.389)" fill="#1a1818"/>
    <g id="그룹_388" data-name="그룹 388" transform="translate(483.687 273.161)">
      <rect id="사각형_118" data-name="사각형 118" width="345.101" height="608.448" fill="none" stroke="#1a1818" stroke-miterlimit="10" stroke-width="0.25"/>
      <rect id="사각형_119" data-name="사각형 119" width="345.101" height="550.265" transform="translate(0 58.183)" fill="#e8e8e8"/>
      <rect id="사각형_120" data-name="사각형 120" width="345.101" height="159.435" transform="translate(0 135.658)" fill="#fff"/>
      <g id="그룹_371" data-name="그룹 371" transform="translate(0 65.424)">
        <rect id="사각형_121" data-name="사각형 121" width="345.101" height="70.234" fill="#f1f5f9"/>
        <g id="그룹_370" data-name="그룹 370" transform="translate(14.338 13.672)">
          <path id="사각형_122" data-name="사각형 122" d="M1.919,0H39.756a1.919,1.919,0,0,1,1.919,1.919V40.587a1.92,1.92,0,0,1-1.92,1.92H1.92A1.92,1.92,0,0,1,0,40.587V1.919A1.919,1.919,0,0,1,1.919,0Z" fill="#fff"/>
          <g id="그룹_368" data-name="그룹 368" transform="translate(13.903 13.953)">
            <path id="사각형_123" data-name="사각형 123" d="M.177,0H3.644A.176.176,0,0,1,3.82.176V3.72a.176.176,0,0,1-.176.176H.176A.176.176,0,0,1,0,3.72V.177A.177.177,0,0,1,.177,0Z" fill="#595a5d"/>
            <path id="사각형_124" data-name="사각형 124" d="M.177,0H3.644A.176.176,0,0,1,3.82.176V3.72a.176.176,0,0,1-.176.176H.176A.176.176,0,0,1,0,3.72V.177A.177.177,0,0,1,.177,0Z" transform="translate(5.026)" fill="#595a5d"/>
            <path id="사각형_125" data-name="사각형 125" d="M.177,0H3.643A.177.177,0,0,1,3.82.177V3.72a.176.176,0,0,1-.176.176H.176A.176.176,0,0,1,0,3.72V.177A.177.177,0,0,1,.177,0Z" transform="translate(10.051)" fill="#595a5d"/>
            <rect id="사각형_126" data-name="사각형 126" width="3.82" height="3.896" rx="0.176" transform="translate(0 5.352)" fill="#595a5d"/>
            <rect id="사각형_127" data-name="사각형 127" width="3.82" height="3.896" rx="0.176" transform="translate(5.026 5.352)" fill="#595a5d"/>
            <rect id="사각형_128" data-name="사각형 128" width="3.82" height="3.896" rx="0.176" transform="translate(10.051 5.352)" fill="#aeb0b3"/>
            <path id="사각형_129" data-name="사각형 129" d="M.177,0H3.644A.176.176,0,0,1,3.82.176V3.72a.176.176,0,0,1-.176.176H.176A.176.176,0,0,1,0,3.72V.177A.177.177,0,0,1,.177,0Z" transform="translate(0 10.704)" fill="#595a5d"/>
            <path id="사각형_130" data-name="사각형 130" d="M.177,0H3.644A.176.176,0,0,1,3.82.176V3.72a.176.176,0,0,1-.176.176H.176A.176.176,0,0,1,0,3.72V.177A.177.177,0,0,1,.177,0Z" transform="translate(5.026 10.704)" fill="#595a5d"/>
            <path id="사각형_131" data-name="사각형 131" d="M.177,0H3.644A.176.176,0,0,1,3.82.176V3.72a.176.176,0,0,1-.176.176H.176A.176.176,0,0,1,0,3.72V.177A.177.177,0,0,1,.177,0Z" transform="translate(10.051 10.704)" fill="#aeb0b3"/>
          </g>
          <g id="그룹_369" data-name="그룹 369" transform="translate(24.528 25.06)">
            <path id="패스_192" data-name="패스 192" d="M-2800.688,282.82a3.931,3.931,0,0,0-3.929-3.931,3.931,3.931,0,0,0-3.931,3.931,3.93,3.93,0,0,0,3.931,3.93A3.93,3.93,0,0,0-2800.688,282.82Z" transform="translate(2808.549 -278.889)" fill="#595a5d"/>
            <rect id="사각형_132" data-name="사각형 132" width="0.499" height="3.433" transform="translate(3.749 2.303)" fill="#fff"/>
            <rect id="사각형_133" data-name="사각형 133" width="3.434" height="0.5" transform="translate(2.282 3.769)" fill="#fff"/>
          </g>
        </g>
        <path id="사각형_134" data-name="사각형 134" d="M1.919,0H68.273a1.92,1.92,0,0,1,1.92,1.92V40.587a1.92,1.92,0,0,1-1.92,1.92H1.918A1.918,1.918,0,0,1,0,40.589V1.919A1.919,1.919,0,0,1,1.919,0Z" transform="translate(61.68 13.672)" fill="#8fcebf"/>
        <path id="사각형_135" data-name="사각형 135" d="M1.919,0H68.273a1.92,1.92,0,0,1,1.92,1.92V40.587a1.92,1.92,0,0,1-1.92,1.92H1.918A1.918,1.918,0,0,1,0,40.589V1.919A1.919,1.919,0,0,1,1.919,0Z" transform="translate(137.692 13.672)" fill="#5d8ba0"/>
        <path id="사각형_136" data-name="사각형 136" d="M1.919,0H68.274a1.919,1.919,0,0,1,1.919,1.919V40.587a1.92,1.92,0,0,1-1.92,1.92H1.92A1.92,1.92,0,0,1,0,40.587V1.919A1.919,1.919,0,0,1,1.919,0Z" transform="translate(213.853 13.672)" fill="#49b1c8"/>
        <path id="패스_193" data-name="패스 193" d="M-2505.639,254.161h-52.939a2.055,2.055,0,0,0-2.148,1.945v38.617a2.055,2.055,0,0,0,2.148,1.945h52.939Z" transform="translate(2850.741 -240.488)" fill="#b4dbc0"/>
        <text id="Student_life" data-name="Student life" transform="translate(90.333 35.486)" fill="#fff" font-size="7" font-family="YDIYGO340"><tspan x="-18.036" y="0">Student life</tspan></text>
        <text id="Fun" transform="translate(172.334 36.486)" fill="#fff" font-size="8" font-family="YDIYGO340"><tspan x="-6.812" y="0">Fun</tspan></text>
        <text id="Academic_Issues" data-name="Academic
Issues" transform="translate(244.658 30.263)" fill="#fff" font-size="8" font-family="YDIYGO340"><tspan x="-18.208" y="0">Academic</tspan><tspan x="-11.508" y="10">Issues</tspan></text>
        <text id="Love" transform="translate(325.167 35.486)" fill="#fff" font-size="7" font-family="YDIYGO340"><tspan x="-7.756" y="0">Love</tspan></text>
      </g>
      <g id="그룹_373" data-name="그룹 373">
        <rect id="사각형_137" data-name="사각형 137" width="345.101" height="58.183" fill="#4fbcbd"/>
        <path id="패스_199" data-name="패스 199" d="M-2577.091,194.251c0,.506-.542.42-1.211.42h0c-.67,0-1.212.086-1.212-.42v-3.544c0-.506.542-.451,1.212-.451h0c.669,0,1.211-.055,1.211.451Z" transform="translate(2850.489 -175.922)" fill="#fff"/>
        <path id="패스_200" data-name="패스 200" d="M-2572.366,194.27c0,.506-.543.42-1.212.42h0c-.668,0-1.213.086-1.213-.42v-4.993c0-.5.544-.449,1.213-.449h0c.669,0,1.212-.056,1.212.449Z" transform="translate(2850.552 -175.941)" fill="#fff"/>
        <path id="패스_201" data-name="패스 201" d="M-2567.642,194.295c0,.506-.542.42-1.209.42h0c-.671,0-1.214.086-1.214-.42v-6.841c0-.5.543-.449,1.214-.449h0c.667,0,1.209-.056,1.209.449Z" transform="translate(2850.615 -175.966)" fill="#fff"/>
        <path id="패스_202" data-name="패스 202" d="M-2562.918,194.314c0,.506-.54.42-1.21.42h0c-.669,0-1.211.086-1.211-.42v-8.289c0-.506.542-.45,1.211-.45h0c.67,0,1.21-.056,1.21.45Z" transform="translate(2850.679 -175.985)" fill="#fff"/>
        <path id="패스_203" data-name="패스 203" d="M-2517,190.348v-1.158a.534.534,0,0,0-.6-.6l-1.484.005v-1.218a2.241,2.241,0,0,0-2.509-2.506l-14.693.062a2.324,2.324,0,0,0-2.527,2.425V192.2c0,2.505,2.671,2.453,2.671,2.453h14.524c2.8,0,2.533-2.428,2.533-2.428v-1.3h1.479A.531.531,0,0,0-2517,190.348Z" transform="translate(2851.035 -175.994)" fill="none" stroke="#fff" stroke-miterlimit="10" stroke-width="1" opacity="0.5"/>
        <path id="패스_204" data-name="패스 204" d="M-2524.6,185.969s1.858-.23,1.858,1.936v3.744a1.692,1.692,0,0,1-1.876,1.876h-10.76a1.883,1.883,0,0,1-1.981-1.9v-3.737a1.772,1.772,0,0,1,1.872-1.874Z" transform="translate(2851.054 -175.98)" fill="#fff"/>
        <text id="LTE" transform="translate(291.912 15.034)" fill="#fff" font-size="8" font-family="YDIYGO340"><tspan x="0" y="0">LTE</tspan></text>
        <text id="_1:13" data-name="1:13" transform="translate(11.664 16.984)" fill="#fff" font-size="10" font-family="YDIYGO340"><tspan x="0" y="0">1:13</tspan></text>
      </g>
      <g id="그룹_374" data-name="그룹 374" transform="translate(113.865 24.103)">
        <path id="패스_205" data-name="패스 205" d="M-2617.173,224.4a2.428,2.428,0,0,1-2.619,2.174h-112.135a2.427,2.427,0,0,1-2.617-2.174V202.071a2.428,2.428,0,0,1,2.617-2.175h112.135a2.429,2.429,0,0,1,2.619,2.175Z" transform="translate(2734.543 -199.896)" fill="#fff" stroke="#fff" stroke-miterlimit="10" stroke-width="2"/>
        <path id="패스_206" data-name="패스 206" d="M-2620.568,199.9h-56.066v26.677h56.066a2.428,2.428,0,0,0,2.618-2.174V202.071A2.429,2.429,0,0,0-2620.568,199.9Z" transform="translate(2735.32 -199.896)" fill="#4fbcbd"/>
        <text id="New" transform="translate(13.271 17.017)" fill="#4fbcbd" font-size="14" font-family="YDIYGO320"><tspan x="0" y="0">New</tspan></text>
        <text id="Hot" transform="translate(77.282 17.017)" fill="#fff" font-size="14" font-family="YDIYGO320"><tspan x="0" y="0">Hot</tspan></text>
      </g>
      <g id="그룹_375" data-name="그룹 375" transform="translate(318.536 29.418)">
        <path id="패스_207" data-name="패스 207" d="M-2532.135,221.088a.845.845,0,0,1-.179-1.367q1.276-1.33,2.551-2.654c.411-.426.82-.851,1.2-1.248-.282-.461-.586-.888-.818-1.352a6.472,6.472,0,0,1,4.417-9.171c.321-.068.648-.1.972-.156h.845c.262.04.527.069.788.121a6.3,6.3,0,0,1,4.2,2.812,6.413,6.413,0,0,1-.989,8.271,6.3,6.3,0,0,1-5.09,1.717,6.23,6.23,0,0,1-2.939-1.064c-.03-.02-.062-.038-.081-.049-.158.148-.321.288-.467.442-1.08,1.12-2.162,2.241-3.234,3.366a1.469,1.469,0,0,1-.618.434h-.312A2.506,2.506,0,0,1-2532.135,221.088Zm13.351-9.478a4.791,4.791,0,0,0-4.789-4.778,4.784,4.784,0,0,0-4.782,4.8,4.79,4.79,0,0,0,4.785,4.78A4.8,4.8,0,0,0-2518.785,211.611Z" transform="translate(2532.583 -205.14)" fill="#fff" fill-rule="evenodd"/>
      </g>
      <line id="선_54" data-name="선 54" x2="345.101" transform="translate(0 135.658)" fill="none" stroke="#c7c9cb" stroke-miterlimit="10" stroke-width="0.8"/>
      <line id="선_55" data-name="선 55" x2="345.101" transform="translate(0 264.42)" fill="none" stroke="#c7c9cb" stroke-miterlimit="10" stroke-width="0.8"/>
      <line id="선_56" data-name="선 56" x2="345.101" transform="translate(0 295.092)" fill="none" stroke="#818386" stroke-miterlimit="10" stroke-width="0.8"/>
      <g id="그룹_376" data-name="그룹 376" transform="translate(0 302.477)">
        <rect id="사각형_138" data-name="사각형 138" width="345.101" height="159.434" fill="#fff"/>
        <line id="선_57" data-name="선 57" x2="345.101" transform="translate(0 128.763)" fill="none" stroke="#c7c9cb" stroke-miterlimit="10" stroke-width="0.8"/>
        <line id="선_58" data-name="선 58" x2="345.101" transform="translate(0 159.434)" fill="none" stroke="#818386" stroke-miterlimit="10" stroke-width="0.8"/>
      </g>
      <path id="패스_208" data-name="패스 208" d="M-2765.361,330.261a8.3,8.3,0,0,1-8.3,8.3H-2827a8.3,8.3,0,0,1-8.3-8.3h0a8.3,8.3,0,0,1,8.3-8.3h53.344a8.3,8.3,0,0,1,8.3,8.3Z" transform="translate(2847.056 -174.154)" fill="#f8f7f8" stroke="#aeb0b3" stroke-miterlimit="10" stroke-width="0.3"/>
      <text id="Love-2" data-name="Love" transform="translate(43.58 156.9)" fill="#595a5d" font-size="7" font-family="YDIYGO340"><tspan x="-7.756" y="0">Love</tspan></text>
      <text id="_102" data-name="102" transform="translate(40.175 280.368)" fill="#595a5d" font-size="7" font-family="YDIYGO330"><tspan x="-5.901" y="0">102</tspan></text>
      <text id="_20" data-name="20" transform="translate(89.557 279.368)" fill="#595a5d" font-size="6" font-family="YDIYGO330"><tspan x="-3.372" y="0">20</tspan></text>
      <text id="_12" data-name="12" transform="translate(136.231 279.368)" fill="#595a5d" font-size="6" font-family="YDIYGO330"><tspan x="-3.372" y="0">12</tspan></text>
      <text id="anonymous" transform="translate(14.425 246.248)" fill="#595a5d" font-size="7" font-family="YDIYGO340"><tspan x="0" y="0">anonymous</tspan></text>
      <text id="_3_days_ago" data-name="3 days ago" transform="translate(256.855 279.478)" fill="#96999c" font-size="7" font-family="YDIYGO320"><tspan x="-17.588" y="0">3 days ago</tspan></text>
      <text id="How_soon_dates_turn_into_relationship" data-name="How soon dates turn into relationship" transform="translate(14.426 190.556)" fill="#313133" font-size="15" font-family="YDIYGO340"><tspan x="0" y="0">How soon dates turn into relationship</tspan></text>
      <text id="Hi_I_ve_been_seeing_this_guy_for_four_months_now._We_chat_every_day_meet_once_or_tw_..._more" data-name="Hi, I ve been seeing this guy for four months now. We chat
every day, meet once or tw ... more" transform="translate(14.426 209.724)" fill="#96999c" font-size="10" font-family="YDIYGO330"><tspan x="0" y="0">Hi, I ve been seeing this guy for four months now. We chat</tspan><tspan x="0" y="13">every day, meet once or tw </tspan><tspan y="13" font-family="YDIYGO310">...</tspan><tspan y="13"> </tspan><tspan y="13" font-family="YDIYGO310">more</tspan></text>
      <text id="_" data-name="’" transform="translate(37.54 208.614)" fill="#96999c" font-size="8" font-family="YDIYGO330"><tspan x="0" y="0">’</tspan></text>
      <g id="그룹_377" data-name="그룹 377" transform="translate(15.514 276.188)">
        <path id="패스_209" data-name="패스 209" d="M-2831.592,452.3a.679.679,0,0,0,.083-.081,9.949,9.949,0,0,1,3.912-2.984,6.983,6.983,0,0,1,5.9.125,10.012,10.012,0,0,1,3.626,2.87.642.642,0,0,0,.075.07v.052c-.036.037-.075.072-.106.111a9.665,9.665,0,0,1-4.787,3.267,6.815,6.815,0,0,1-4.644-.288,9.956,9.956,0,0,1-3.973-3.011.673.673,0,0,0-.083-.08Zm4.292-.611a2.594,2.594,0,0,0,1.535,3.026,2.577,2.577,0,0,0,3.09-.927,2.566,2.566,0,0,0-.233-3.217,2.488,2.488,0,0,0-1.469-.787,2.555,2.555,0,0,0-2.177.654.147.147,0,0,1-.029-.025c-.091-.1-.188-.2-.272-.309a.161.161,0,0,0-.224-.057,8.767,8.767,0,0,0-2.593,1.624c-.234.208-.456.429-.687.651a9.091,9.091,0,0,0,3.354,2.3,3.227,3.227,0,0,1-.881-3.039c.189.029.359.057.527.085A.436.436,0,0,1-2827.3,451.688Zm8.062.637a9.022,9.022,0,0,0-3.351-2.3,3.185,3.185,0,0,1,.966,2.3,3.2,3.2,0,0,1-.964,2.291A9.067,9.067,0,0,0-2819.239,452.326Z" transform="translate(2831.592 -448.642)" fill="#c2c6cb" fill-rule="evenodd"/>
        <path id="패스_210" data-name="패스 210" d="M-2826.489,451.8a1.683,1.683,0,0,0,.831,2.018,1.717,1.717,0,0,0,2.276-.654,1.72,1.72,0,0,0-.532-2.294,1.674,1.674,0,0,0-2.124.206c.27.3.536.606.831.938Z" transform="translate(2831.659 -448.616)" fill="#c2c6cb" fill-rule="evenodd"/>
        <path id="패스_211" data-name="패스 211" d="M-2826.489,451.8l1.282.214c-.3-.332-.561-.635-.831-.938a1.674,1.674,0,0,1,2.124-.206,1.72,1.72,0,0,1,.532,2.294,1.717,1.717,0,0,1-2.276.654A1.683,1.683,0,0,1-2826.489,451.8Z" transform="translate(2831.659 -448.616)" fill="#c2c6cb" fill-rule="evenodd"/>
      </g>
      <g id="그룹_378" data-name="그룹 378" transform="translate(70.953 275.761)">
        <path id="패스_212" data-name="패스 212" d="M-2768.785,451.4v.222s-.006.008-.006.013a.792.792,0,0,1-.317.515.073.073,0,0,0-.007.071.8.8,0,0,1-.244.976.061.061,0,0,0-.021.092.776.776,0,0,1-.172.9.193.193,0,0,0-.06.253.8.8,0,0,1-.765,1.035q-2.155,0-4.311,0c-.1,0-.1,0-.1-.1q0-2.028,0-4.056a.175.175,0,0,1,.063-.145c.5-.458,1-.923,1.5-1.378a1.768,1.768,0,0,0,.6-1.16.429.429,0,0,1,.414-.417.886.886,0,0,1,.883.446,1.421,1.421,0,0,1,.16,1.1c-.073.283-.19.553-.287.832l-.035.106h.106c.6,0,1.208,0,1.809-.005a.779.779,0,0,1,.756.586C-2768.806,451.326-2768.8,451.363-2768.785,451.4Z" transform="translate(2776.915 -448.221)" fill="#c2c6cb" fill-rule="evenodd"/>
        <path id="패스_213" data-name="패스 213" d="M-2776.887,450.877a.32.32,0,0,1,.338-.206c.317.007.636,0,.955,0a.269.269,0,0,1,.3.3v4.707a.266.266,0,0,1-.3.3c-.317,0-.634-.005-.953,0a.319.319,0,0,1-.34-.2Z" transform="translate(2776.887 -448.188)" fill="#c2c6cb" fill-rule="evenodd"/>
      </g>
      <line id="선_59" data-name="선 59" y2="30.672" transform="translate(297.93 264.42)" fill="none" stroke="#c7c9cb" stroke-miterlimit="10" stroke-width="0.5"/>
      <path id="패스_214" data-name="패스 214" d="M-2526.394,446.434h-5.556a.987.987,0,0,0-.988.986v10.627h.612l2.575-2.473h1.134l2.467,2.466.741.007V447.42A.986.986,0,0,0-2526.394,446.434Z" transform="translate(2851.114 -172.484)" fill="#c5cacd"/>
      <path id="패스_215" data-name="패스 215" d="M-2721.344,451.436v.433c-.024.149-.038.3-.07.446a3.424,3.424,0,0,1-1.555,2.206,4.2,4.2,0,0,1-3.776.434.344.344,0,0,0-.3.016,6.738,6.738,0,0,1-2.019.627.15.15,0,0,1-.176-.089v-.079a1.821,1.821,0,0,0,.308-.465,4.332,4.332,0,0,0,.31-1.29.249.249,0,0,0-.048-.184,3.159,3.159,0,0,1-.492-1.145c-.032-.157-.052-.318-.077-.476v-.433c.017-.121.031-.244.053-.364a3.43,3.43,0,0,1,1.4-2.166,4.16,4.16,0,0,1,3-.773,4.02,4.02,0,0,1,2.245.98,3.4,3.4,0,0,1,1.125,1.884C-2721.384,451.141-2721.367,451.291-2721.344,451.436Zm-3.952.744a.526.526,0,0,0,.53-.52.528.528,0,0,0-.527-.531.526.526,0,0,0-.524.527A.52.52,0,0,0-2725.3,452.18Zm-1.842,0a.527.527,0,0,0,.53-.52.529.529,0,0,0-.52-.531.527.527,0,0,0-.534.524A.527.527,0,0,0-2727.138,452.18Zm3.69,0a.525.525,0,0,0,.523-.525.528.528,0,0,0-.532-.527.53.53,0,0,0-.521.531A.529.529,0,0,0-2723.448,452.181Z" transform="translate(2848.479 -172.462)" fill="#c2c6cb" fill-rule="evenodd"/>
      <path id="패스_216" data-name="패스 216" d="M-2765.361,494.87a8.3,8.3,0,0,1-8.3,8.3H-2827a8.3,8.3,0,0,1-8.3-8.3h0a8.3,8.3,0,0,1,8.3-8.3h53.344a8.3,8.3,0,0,1,8.3,8.3Z" transform="translate(2847.056 -171.945)" fill="#f8f7f8" stroke="#aeb0b3" stroke-miterlimit="10" stroke-width="0.3"/>
      <text id="Student_life-2" data-name="Student life" transform="translate(39.392 323.719)" fill="#595a5d" font-size="7" font-family="YDIYGO340"><tspan x="-18.036" y="0">Student life</tspan></text>
      <text id="_201" data-name="201" transform="translate(40.175 447.186)" fill="#595a5d" font-size="7" font-family="YDIYGO330"><tspan x="-5.901" y="0">201</tspan></text>
      <text id="_40" data-name="40" transform="translate(89.557 446.186)" fill="#595a5d" font-size="6" font-family="YDIYGO330"><tspan x="-3.372" y="0">40</tspan></text>
      <text id="_22" data-name="22" transform="translate(136.231 446.186)" fill="#595a5d" font-size="6" font-family="YDIYGO330"><tspan x="-3.372" y="0">22</tspan></text>
      <text id="anonymous-2" data-name="anonymous" transform="translate(14.425 413.067)" fill="#595a5d" font-size="7" font-family="YDIYGO340"><tspan x="0" y="0">anonymous</tspan></text>
      <text id="_3_days_ago-2" data-name="3 days ago" transform="translate(256.855 446.297)" fill="#96999c" font-size="7" font-family="YDIYGO320"><tspan x="-17.588" y="0">3 days ago</tspan></text>
      <text id="Am_I_too_old_to_go_back_to_school_in_my_28" data-name="Am I too old to go back to school in my 28" transform="translate(14.426 357.376)" fill="#313133" font-size="15" font-family="YDIYGO340"><tspan x="0" y="0">Am I too old to go back to school in my 28</tspan></text>
      <g id="그룹_379" data-name="그룹 379" transform="translate(0 468.917)">
        <rect id="사각형_139" data-name="사각형 139" width="345.101" height="104.907" fill="#fff"/>
      </g>
      <path id="패스_217" data-name="패스 217" d="M-2765.361,659.109a8.3,8.3,0,0,1-8.3,8.3H-2827a8.3,8.3,0,0,1-8.3-8.3h0a8.3,8.3,0,0,1,8.3-8.3h53.344a8.3,8.3,0,0,1,8.3,8.3Z" transform="translate(2847.056 -169.741)" fill="#f8f7f8" stroke="#aeb0b3" stroke-miterlimit="10" stroke-width="0.3"/>
      <text id="Gender" transform="translate(42.512 490.16)" fill="#595a5d" font-size="7" font-family="YDIYGO340"><tspan x="-11.841" y="0">Gender</tspan></text>
      <text id="Why_Is_This_Offensive_To_Women_" data-name="Why Is This Offensive To Women?" transform="translate(16.262 523.817)" fill="#313133" font-size="15" font-family="YDIYGO340"><tspan x="0" y="0">Why Is This Offensive To Women?</tspan></text>
      <text id="Am_i_too_old_to_go_back_to_school_in_my_28_and_learn_CS_Feel_like_everyone_around_wo_..._more" data-name="Am i too old to go back to school in my 28 and learn CS?
Feel like everyone around wo ... more" transform="translate(14.426 376.544)" fill="#96999c" font-size="10" font-family="YDIYGO330"><tspan x="0" y="0">Am i too old to go back to school in my 28 and learn CS?</tspan><tspan x="0" y="13">Feel like everyone around wo </tspan><tspan y="13" font-family="YDIYGO310">...</tspan><tspan y="13"> </tspan><tspan y="13" font-family="YDIYGO310">more</tspan></text>
      <text id="I_was_at_a_bar_with_friends_and_my_friend_commented_on_why_he_puts_maybe_someday_fo_..._more" data-name="I was at a bar with friends and my friend commented on why
he puts “maybe someday”fo ... more" transform="translate(16.205 542.348)" fill="#96999c" font-size="10" font-family="YDIYGO330"><tspan x="0" y="0">I was at a bar with friends and my friend commented on why</tspan><tspan x="0" y="13">he puts “maybe someday”fo </tspan><tspan y="13" font-family="YDIYGO310">...</tspan><tspan y="13"> </tspan><tspan y="13" font-family="YDIYGO310">more</tspan></text>
      <g id="그룹_380" data-name="그룹 380" transform="translate(15.514 443.008)">
        <path id="패스_218" data-name="패스 218" d="M-2831.592,616.909a1,1,0,0,0,.083-.079,9.952,9.952,0,0,1,3.912-2.986,6.99,6.99,0,0,1,5.9.125,10.036,10.036,0,0,1,3.626,2.871.743.743,0,0,0,.075.069v.053a1.344,1.344,0,0,0-.106.11,9.681,9.681,0,0,1-4.787,3.269,6.821,6.821,0,0,1-4.644-.29,9.951,9.951,0,0,1-3.973-3.01.552.552,0,0,0-.083-.08Zm4.292-.612a2.6,2.6,0,0,0,1.535,3.028,2.58,2.58,0,0,0,3.09-.927,2.565,2.565,0,0,0-.233-3.216,2.486,2.486,0,0,0-1.469-.789,2.561,2.561,0,0,0-2.177.654.158.158,0,0,1-.029-.024c-.091-.1-.188-.2-.272-.31a.161.161,0,0,0-.224-.057,8.752,8.752,0,0,0-2.593,1.625c-.234.208-.456.429-.687.65a9.083,9.083,0,0,0,3.354,2.3,3.228,3.228,0,0,1-.881-3.039c.189.029.359.057.527.085C-2827.342,616.281-2827.325,616.29-2827.3,616.3Zm8.062.638a9.007,9.007,0,0,0-3.351-2.3,3.182,3.182,0,0,1,.966,2.3,3.2,3.2,0,0,1-.964,2.292A9.058,9.058,0,0,0-2819.239,616.936Z" transform="translate(2831.592 -613.253)" fill="#4fbcbd" fill-rule="evenodd"/>
        <path id="패스_219" data-name="패스 219" d="M-2826.489,616.411a1.682,1.682,0,0,0,.831,2.018,1.716,1.716,0,0,0,2.276-.653,1.723,1.723,0,0,0-.532-2.3,1.675,1.675,0,0,0-2.124.207c.27.3.536.607.831.938C-2825.664,616.551-2826.077,616.481-2826.489,616.411Z" transform="translate(2831.659 -613.227)" fill="#4fbcbd" fill-rule="evenodd"/>
        <path id="패스_220" data-name="패스 220" d="M-2826.489,616.411c.411.07.825.14,1.282.214-.3-.331-.561-.635-.831-.938a1.675,1.675,0,0,1,2.124-.207,1.723,1.723,0,0,1,.532,2.3,1.716,1.716,0,0,1-2.276.653A1.682,1.682,0,0,1-2826.489,616.411Z" transform="translate(2831.659 -613.227)" fill="#4fbcbd" fill-rule="evenodd"/>
      </g>
      <g id="그룹_381" data-name="그룹 381" transform="translate(70.953 442.581)">
        <path id="패스_221" data-name="패스 221" d="M-2768.785,616.012v.222l-.006.014a.79.79,0,0,1-.317.514c-.013.008-.017.05-.007.072a.8.8,0,0,1-.244.976c-.038.028-.042.049-.021.091a.775.775,0,0,1-.172.9.194.194,0,0,0-.06.254.8.8,0,0,1-.765,1.035q-2.155,0-4.311,0c-.1,0-.1,0-.1-.1q0-2.029,0-4.057a.174.174,0,0,1,.063-.144c.5-.459,1-.924,1.5-1.379a1.766,1.766,0,0,0,.6-1.159.428.428,0,0,1,.414-.416.886.886,0,0,1,.883.446,1.421,1.421,0,0,1,.16,1.1c-.073.282-.19.553-.287.83-.01.031-.02.064-.035.108h.106c.6,0,1.208,0,1.809-.005a.778.778,0,0,1,.756.586C-2768.806,615.935-2768.8,615.973-2768.785,616.012Z" transform="translate(2776.915 -612.831)" fill="#4fbcbd" fill-rule="evenodd"/>
        <path id="패스_222" data-name="패스 222" d="M-2776.887,615.487a.32.32,0,0,1,.338-.2c.317.006.636,0,.955,0a.268.268,0,0,1,.3.3v4.706a.266.266,0,0,1-.3.3c-.317,0-.634,0-.953,0a.32.32,0,0,1-.34-.2Z" transform="translate(2776.887 -612.799)" fill="#4fbcbd" fill-rule="evenodd"/>
      </g>
      <line id="선_60" data-name="선 60" y2="30.672" transform="translate(297.93 431.24)" fill="none" stroke="#c7c9cb" stroke-miterlimit="10" stroke-width="0.5"/>
      <path id="패스_223" data-name="패스 223" d="M-2526.394,611.044h-5.556a.986.986,0,0,0-.988.986v10.627h.612l2.575-2.473h1.134l2.467,2.467.741.006V612.03A.985.985,0,0,0-2526.394,611.044Z" transform="translate(2851.114 -170.275)" fill="#c5cacd"/>
      <path id="패스_224" data-name="패스 224" d="M-2721.344,616.046v.433c-.024.15-.038.3-.07.448a3.42,3.42,0,0,1-1.555,2.2,4.2,4.2,0,0,1-3.776.435.337.337,0,0,0-.3.017,6.766,6.766,0,0,1-2.019.626.151.151,0,0,1-.176-.09v-.078a1.829,1.829,0,0,0,.308-.466,4.318,4.318,0,0,0,.31-1.29.242.242,0,0,0-.048-.182,3.184,3.184,0,0,1-.492-1.147c-.032-.156-.052-.319-.077-.476v-.433c.017-.121.031-.245.053-.364a3.435,3.435,0,0,1,1.4-2.166,4.163,4.163,0,0,1,3-.772,4.018,4.018,0,0,1,2.245.979,3.411,3.411,0,0,1,1.125,1.884C-2721.384,615.751-2721.367,615.9-2721.344,616.046Zm-3.952.745a.526.526,0,0,0,.53-.52.527.527,0,0,0-.527-.531.525.525,0,0,0-.524.525A.521.521,0,0,0-2725.3,616.791Zm-1.842,0a.527.527,0,0,0,.53-.52.528.528,0,0,0-.52-.531.527.527,0,0,0-.534.523A.528.528,0,0,0-2727.138,616.791Zm3.69,0a.527.527,0,0,0,.523-.527.528.528,0,0,0-.532-.525.53.53,0,0,0-.521.531A.529.529,0,0,0-2723.448,616.792Z" transform="translate(2848.479 -170.253)" fill="#c2c6cb" fill-rule="evenodd"/>
      <rect id="사각형_140" data-name="사각형 140" width="345.101" height="34.623" transform="translate(0 573.824)" fill="#fff"/>
      <rect id="사각형_141" data-name="사각형 141" width="345.101" height="6.567" transform="translate(0 567.257)" fill="url(#linear-gradient-3)"/>
      <g id="그룹_383" data-name="그룹 383" transform="translate(157.957 576.765)">
        <path id="패스_225" data-name="패스 225" d="M-2662.289,759.609a14.372,14.372,0,0,0-14.373-14.37,14.371,14.371,0,0,0-14.373,14.37,14.372,14.372,0,0,0,14.373,14.373A14.373,14.373,0,0,0-2662.289,759.609Z" transform="translate(2691.035 -745.239)" fill="#4fbcbd"/>
        <g id="그룹_382" data-name="그룹 382" transform="translate(6.87 5.805)">
          <path id="패스_226" data-name="패스 226" d="M-2684.256,754.313a4.839,4.839,0,0,1,.3-.78,1.879,1.879,0,0,1,1.639-.983c1.229-.02,2.462-.01,3.694-.006a.4.4,0,0,1,.433.411.412.412,0,0,1-.448.4c-1.161,0-2.326,0-3.488,0a1.228,1.228,0,0,0-1.316,1.3q0,5.24,0,10.474a1.227,1.227,0,0,0,1.308,1.3h11.272a1.232,1.232,0,0,0,1.312-1.311c0-1.162,0-2.324,0-3.486a.4.4,0,0,1,.424-.451.393.393,0,0,1,.382.36.522.522,0,0,1,0,.079c0,1.21.009,2.419,0,3.63a2.015,2.015,0,0,1-1.96,1.987c-.067,0-.137,0-.206,0q-5.591,0-11.177.006a2.1,2.1,0,0,1-1.806-.881,2.371,2.371,0,0,1-.366-.924Z" transform="translate(2684.256 -750.946)" fill="#fff" fill-rule="evenodd"/>
          <path id="패스_227" data-name="패스 227" d="M-2667.939,753.288a1.823,1.823,0,0,1-.489,1.246c-.166.178-.344.349-.517.522q-3.358,3.36-6.72,6.715a.86.86,0,0,1-.359.216c-1.095.313-2.193.614-3.29.919-.026.005-.051.014-.079.019a.406.406,0,0,1-.494-.5q.47-1.722.957-3.443a.547.547,0,0,1,.142-.226q3.6-3.61,7.212-7.215a1.822,1.822,0,0,1,2.658.007c.212.212.424.422.614.652A1.729,1.729,0,0,1-2667.939,753.288Zm-4.046-.155q-2.953,2.96-5.912,5.91c.629.627,1.262,1.265,1.888,1.888,1.966-1.965,3.943-3.943,5.91-5.911Zm2.508,1.29c.152-.147.312-.294.459-.457a1.007,1.007,0,0,0-.014-1.375c-.167-.179-.341-.352-.519-.52a.992.992,0,0,0-.837-.271c-.473.055-.706.432-1,.708C-2670.741,753.154-2670.11,753.786-2669.477,754.423Zm-7.345,6.944c-.511-.507-1.012-1-1.511-1.5-.186.673-.376,1.361-.574,2.08C-2678.192,761.746-2677.5,761.557-2676.822,761.367Z" transform="translate(2684.315 -750.967)" fill="#fff" fill-rule="evenodd"/>
        </g>
      </g>
      <path id="사각형_142" data-name="사각형 142" d="M1.263,0h24.89a1.263,1.263,0,0,1,1.263,1.263V26.7a1.262,1.262,0,0,1-1.262,1.262H1.262A1.262,1.262,0,0,1,0,26.7V1.263A1.263,1.263,0,0,1,1.263,0Z" transform="translate(309.428 539.792)" fill="#6d6f72" opacity="0.7"/>
      <path id="사각형_143" data-name="사각형 143" d="M1.262,0H26.153a1.263,1.263,0,0,1,1.263,1.263V26.7a1.263,1.263,0,0,1-1.263,1.263H1.262A1.262,1.262,0,0,1,0,26.7V1.262A1.262,1.262,0,0,1,1.262,0Z" transform="translate(308.85 539.293)" fill="none" stroke="#1a1818" stroke-miterlimit="10" stroke-width="0.2" opacity="0.7"/>
      <g id="그룹_384" data-name="그룹 384" transform="translate(27.391 582.005)">
        <path id="패스_228" data-name="패스 228" d="M-2812.16,769.054h-5.625c0-.044.008-.085.008-.128V758.314c0-.051-.01-.1-.018-.19-.085.069-.143.115-.2.165-.423.358-.847.719-1.274,1.074a.371.371,0,0,1-.515,0,.3.3,0,0,1,.02-.443c.054-.053.113-.1.172-.15q4.846-4.106,9.689-8.214a1.915,1.915,0,0,0,.137-.147h.079a1.688,1.688,0,0,0,.123.136q3.2,2.713,6.4,5.425l3.377,2.864a.639.639,0,0,1,.176.194.277.277,0,0,1-.105.372.368.368,0,0,1-.47-.036c-.429-.361-.857-.728-1.287-1.088-.053-.047-.11-.088-.2-.158v.249q0,5.243,0,10.487c0,.068.006.135.008.2h-5.625c.006-.065.017-.132.017-.2q0-2.721,0-5.443a3.138,3.138,0,0,0-.019-.363,2.443,2.443,0,0,0-3.044-1.91,2.279,2.279,0,0,0-1.84,2.256c0,1.826,0,3.652,0,5.478A1.745,1.745,0,0,0-2812.16,769.054Z" transform="translate(2819.873 -750.41)" fill-rule="evenodd"/>
      </g>
      <g id="그룹_386" data-name="그룹 386" transform="translate(94.668 582.771)">
        <g id="그룹_385" data-name="그룹 385">
          <path id="패스_229" data-name="패스 229" d="M-2753.486,766.729c.017-.064.038-.128.051-.195a2.1,2.1,0,0,1,.7-1.15,8.888,8.888,0,0,0,3.072-5.8,24.956,24.956,0,0,0,.216-3.01,5.3,5.3,0,0,1,2.795-4.7,5.439,5.439,0,0,1,8.022,3.84,20.712,20.712,0,0,1,.119,2.069,12.692,12.692,0,0,0,1.041,4.761,7.6,7.6,0,0,0,1.889,2.538,2.86,2.86,0,0,1,1.074,1.65v.445a.77.77,0,0,1-.815.465c-1.815-.011-3.631-.005-5.447-.005h-.235a3.094,3.094,0,0,1-3,2.423,3.094,3.094,0,0,1-2.98-2.423h-.236c-1.817,0-3.635-.006-5.449.005a.767.767,0,0,1-.813-.465Zm1.614-.349H-2736c-.105-.094-.18-.164-.257-.232a9.716,9.716,0,0,1-2.7-3.991,15.4,15.4,0,0,1-.807-4.817c-.015-.421,0-.841-.05-1.259a4.215,4.215,0,0,0-3.132-3.538,4.222,4.222,0,0,0-4.469,1.629,4.214,4.214,0,0,0-.8,2.518,18.591,18.591,0,0,1-.378,3.954,10.011,10.011,0,0,1-2.409,4.783C-2751.307,765.755-2751.6,766.086-2751.872,766.38Zm6.212,1.264a1.748,1.748,0,0,0,1.74,1.162,1.728,1.728,0,0,0,1.578-1.162Z" transform="translate(2753.486 -751.166)" fill="#96999c" fill-rule="evenodd"/>
        </g>
        <path id="패스_230" data-name="패스 230" d="M-2735.765,757.788a2.921,2.921,0,0,0-2.918-2.919,2.921,2.921,0,0,0-2.922,2.919,2.921,2.921,0,0,0,2.922,2.919A2.92,2.92,0,0,0-2735.765,757.788Z" transform="translate(2753.646 -751.117)" fill="#4fbcbd"/>
      </g>
      <g id="그룹_387" data-name="그룹 387" transform="translate(228.56 581.748)">
        <path id="패스_231" data-name="패스 231" d="M-2621.367,756.35c.044-.142.081-.284.129-.423a2.2,2.2,0,0,1,2-1.514c.98-.031,1.962-.019,2.942-.025h.289c0-.391,0-.755,0-1.12a8.09,8.09,0,0,1,.051-1.276,2.233,2.233,0,0,1,2.252-1.836q4.535,0,9.069.016c1.279,0,2.558.006,3.838.013a2.273,2.273,0,0,1,2.413,2.419c0,2.636,0,5.27,0,7.9a2.255,2.255,0,0,1-1.932,2.289,6.438,6.438,0,0,1-.752.041v.259q0,1.718,0,3.435c0,.208-.026.394-.243.479s-.367-.035-.507-.19q-.85-.941-1.706-1.877c-.056-.067-.119-.129-.21-.228-.02.166-.03.29-.048.411a2.224,2.224,0,0,1-2.068,1.867c-1.294.043-2.589.029-3.883.036q-1.224.009-2.448,0a.409.409,0,0,0-.344.149q-1.71,1.894-3.427,3.774a1.743,1.743,0,0,1-.2.21.372.372,0,0,1-.607-.226,1.259,1.259,0,0,1-.016-.245v-3.658h-.556c-.56,0-1.12,0-1.684,0a2.256,2.256,0,0,1-2.318-1.9c-.008-.03-.025-.055-.036-.083Zm5.362,13.454.052.031c.054-.062.106-.125.16-.184.945-1.042,1.9-2.08,2.836-3.126a.714.714,0,0,1,.584-.256q3.118,0,6.241-.022a1.5,1.5,0,0,0,1.622-1.558q.007-4,0-7.993a1.5,1.5,0,0,0-1.6-1.561q-4.262,0-8.527.011-2.175,0-4.355.016a1.507,1.507,0,0,0-1.611,1.616q0,3.961,0,7.921a1.5,1.5,0,0,0,1.566,1.572c.848,0,1.691,0,2.537,0,.359,0,.491.127.491.483.006.651,0,1.3,0,1.953Zm.793-15.42c.115,0,.21,0,.307,0,2.939,0,5.88-.011,8.822-.007a2.611,2.611,0,0,1,.792.121,2.254,2.254,0,0,1,1.549,2.279q.007,3.277,0,6.557a.521.521,0,0,0,.153.4c.429.46.847.927,1.271,1.392.148.164.3.329.49.538v-.3c0-.944,0-1.886,0-2.828,0-.339.141-.476.479-.479.21,0,.419,0,.627,0a1.5,1.5,0,0,0,1.577-1.581q.006-3.974,0-7.947a1.88,1.88,0,0,0-.073-.529,1.5,1.5,0,0,0-1.549-1.048q-4.336-.018-8.668-.027-2.108,0-4.22-.006a1.454,1.454,0,0,0-1.54,1.225C-2615.263,752.875-2615.212,753.618-2615.212,754.384Z" transform="translate(2621.367 -750.156)" fill="#96999c" fill-rule="evenodd"/>
        <path id="패스_232" data-name="패스 232" d="M-2612.6,760.363h4.8a1.17,1.17,0,0,1,.267.019.343.343,0,0,1,.289.372.345.345,0,0,1-.287.356,1.373,1.373,0,0,1-.265.019q-4.807,0-9.609,0a1.43,1.43,0,0,1-.2-.009.372.372,0,0,1-.357-.386.375.375,0,0,1,.374-.37c.075-.006.151,0,.224,0Z" transform="translate(2621.413 -750.019)" fill="#96999c" fill-rule="evenodd"/>
        <path id="패스_233" data-name="패스 233" d="M-2612.591,762.632h4.8c.368,0,.553.13.555.379s-.188.392-.548.392q-4.813,0-9.63,0a.954.954,0,0,1-.289-.031.342.342,0,0,1-.254-.4.342.342,0,0,1,.314-.327,1.546,1.546,0,0,1,.266-.013Z" transform="translate(2621.413 -749.989)" fill="#96999c" fill-rule="evenodd"/>
        <path id="패스_234" data-name="패스 234" d="M-2615.105,758.858h-2.285a1.641,1.641,0,0,1-.247-.009.346.346,0,0,1-.318-.322.346.346,0,0,1,.248-.4.833.833,0,0,1,.265-.029c1.57,0,3.138,0,4.706,0a.675.675,0,0,1,.091,0,.394.394,0,0,1,.428.39.387.387,0,0,1-.422.372c-.65,0-1.3,0-1.95,0Z" transform="translate(2621.413 -750.049)" fill="#96999c" fill-rule="evenodd"/>
      </g>
      <path id="사각형_144" data-name="사각형 144" d="M1.262,0H26.153a1.263,1.263,0,0,1,1.263,1.263V26.7a1.263,1.263,0,0,1-1.263,1.263H1.262A1.262,1.262,0,0,1,0,26.7V1.262A1.262,1.262,0,0,1,1.262,0Z" transform="translate(308.85 539.293)" fill="#e8e8e8"/>
      <path id="패스_235" data-name="패스 235" d="M-2533.639,725.571l5.107-6.93,5.077,6.888Z" transform="translate(2851.105 -168.831)" fill="#4b4b4b"/>
      <path id="패스_236" data-name="패스 236" d="M-2543.328,769.606h-7.694c-.687,0-.872-.194-.841-.876a5.788,5.788,0,0,1,4.6-5.346,6.251,6.251,0,0,1,1.184-.1c1.963,0,3.929-.031,5.892.029a5.436,5.436,0,0,1,4.49,2.6,5.537,5.537,0,0,1,.916,2.929c.023.551-.187.767-.735.767Q-2539.419,769.607-2543.328,769.606Zm7.283-1.22a3.027,3.027,0,0,0-.045-.317,4.471,4.471,0,0,0-4.293-3.581c-1.962-.042-3.929-.058-5.891.007a4.362,4.362,0,0,0-4.006,2.726,8.817,8.817,0,0,0-.364,1.165Z" transform="translate(2850.86 -168.232)" fill="#96999c" fill-rule="evenodd"/>
      <path id="패스_237" data-name="패스 237" d="M-2548.889,756.344a5.483,5.483,0,0,1,5.43-5.489,5.457,5.457,0,0,1,5.565,5.456,5.479,5.479,0,0,1-5.422,5.494A5.494,5.494,0,0,1-2548.889,756.344Zm5.5,4.018a4.084,4.084,0,0,0,4.059-4.023,4.1,4.1,0,0,0-4.064-4.066,4.012,4.012,0,0,0-4.041,4.066A4.011,4.011,0,0,0-2543.388,760.362Z" transform="translate(2850.9 -168.399)" fill="#96999c" fill-rule="evenodd"/>
    </g>
    <path id="사각형_117" data-name="사각형 117" d="M9.383,0H68.575a9.381,9.381,0,0,1,9.381,9.381v25.6a9.379,9.379,0,0,1-9.379,9.379H9.379A9.379,9.379,0,0,1,0,34.986V9.383A9.383,9.383,0,0,1,9.383,0Z" transform="translate(618.371 903.313)" fill="none" stroke="#acacad" stroke-miterlimit="10" stroke-width="1.3"/>
  </g>
</svg>
