<svg xmlns="http://www.w3.org/2000/svg" width="25.165" height="20.141" viewBox="0 0 25.165 20.141">
  <g id="그룹_454" data-name="그룹 454" transform="translate(-6738.503 395.659)">
    <path id="패스_248" data-name="패스 248" d="M544.668,653.283v11.994a.621.621,0,0,0-.035.088,2.533,2.533,0,0,1-2.72,2.117H522.255c-.107,0-.213,0-.319,0a2.556,2.556,0,0,1-2.308-1.736c-.045-.137-.083-.278-.125-.416V653.283a.217.217,0,0,0,.037-.061,2.517,2.517,0,0,1,2.631-2.1H524.9a1.108,1.108,0,0,0,1.175-.846c.238-.7.466-1.4.7-2.1a1.129,1.129,0,0,1,1.162-.836q4.151,0,8.3,0a1.126,1.126,0,0,1,1.16.838c.235.7.463,1.4.7,2.1a1.106,1.106,0,0,0,1.174.844c.975,0,1.95-.008,2.924,0a2.512,2.512,0,0,1,2.34,1.719C544.586,652.988,544.625,653.136,544.668,653.283Zm-12.583-.9a6.291,6.291,0,1,0,6.292,6.3A6.285,6.285,0,0,0,532.085,652.382Zm9.189,1.252a.88.88,0,1,0,.88.875A.887.887,0,0,0,541.274,653.634Z" transform="translate(6219 -1043)" fill="#767676" fill-rule="evenodd"/>
    <path id="패스_249" data-name="패스 249" d="M532.081,662.441a3.77,3.77,0,1,1,3.782-3.756A3.777,3.777,0,0,1,532.081,662.441Z" transform="translate(6219 -1043)" fill="#767676" fill-rule="evenodd"/>
  </g>
</svg>
