<svg xmlns="http://www.w3.org/2000/svg" width="85" height="28.134" viewBox="0 0 85 28.134">
  <g id="그룹_447" data-name="그룹 447" transform="translate(-5390.164 -3688.017)">
    <g id="그룹_446" data-name="그룹 446" transform="translate(5439.662 3688.163)">
      <g id="그룹_2" data-name="그룹 2">
        <g id="그룹_1" data-name="그룹 1">
          <path id="패스_1" data-name="패스 1" d="M595,27.721V.431a.958.958,0,0,1,.844-.349q16.906.01,33.813,0a.961.961,0,0,1,.844.349v27.29a.965.965,0,0,1-.844.349q-16.906-.01-33.813,0A.963.963,0,0,1,595,27.721Zm18.7-7.448c.1-.077.159-.124.219-.176l4.971-4.367c.331-.291.367-.287.674.031l7.226,7.469c.084.087.175.167.332.315v-.452q0-9.592,0-19.184c0-.448,0-.449-.453-.449H598.834c-.455,0-.456,0-.456.445q0,9.159,0,18.318v.467c.144-.177.223-.269.3-.365l7.662-10.272c.281-.377.377-.379.678-.009q1.77,2.177,3.537,4.356C611.591,17.681,612.633,18.96,613.7,20.272Z" transform="translate(-595 -0.082)" fill="#ced0d3" fill-rule="evenodd"/>
          <path id="패스_2" data-name="패스 2" d="M657.9,64.465c-1.068-1.312-2.11-2.592-3.151-3.873q-1.769-2.178-3.537-4.356c-.3-.37-.4-.369-.678.009L642.87,66.518c-.072.1-.152.188-.3.365v-.467q0-9.159,0-18.318c0-.444,0-.445.456-.445h27.837c.452,0,.452,0,.453.449q0,9.592,0,19.184v.452c-.157-.149-.248-.229-.332-.315l-7.226-7.469c-.307-.318-.343-.321-.674-.031l-4.971,4.367C658.057,64.341,657.993,64.388,657.9,64.465Zm4.981-14.2a2.752,2.752,0,0,0-.136,5.5,2.752,2.752,0,1,0,.136-5.5Z" transform="translate(-639.196 -44.275)" fill="#ced0d3" fill-rule="evenodd"/>
          <path id="패스_3" data-name="패스 3" d="M891.783,84.445a2.752,2.752,0,1,1-2.806,2.662A2.765,2.765,0,0,1,891.783,84.445Z" transform="translate(-868.102 -78.454)" fill="#ced0d3" fill-rule="evenodd"/>
        </g>
      </g>
      <rect id="사각형_2" data-name="사각형 2" width="31.882" height="25.136" transform="translate(1.349 2.343)" fill="#ced0d3"/>
      <g id="그룹_3" data-name="그룹 3" transform="translate(3.66 7.412)">
        <path id="패스_4" data-name="패스 4" d="M655.955,104.5c0,.564,0,1.083,0,1.6,0,.321-.239.254-.422.254-1.63,0-3.26,0-4.89,0a5.125,5.125,0,0,0-.631.026,1.683,1.683,0,0,0-1.527,1.5,4.138,4.138,0,0,0-.041.587q0,2.572,0,5.143c0,1.479.653,2.125,2.143,2.129q1.518,0,3.035,0c.137,0,.275-.013.432-.02v-3.73h-1.906c-.492,0-.984-.012-1.475,0-.28.009-.371-.1-.361-.37.016-.407.01-.815,0-1.222,0-.216.087-.3.3-.3,1.686,0,3.373,0,5.059.014a.382.382,0,0,1,.269.258c.01,2.374,0,4.749,0,7.123,0,.024-.024.048-.049.1-.095.008-.2.024-.313.024-1.757,0-3.513.014-5.27,0a3.684,3.684,0,0,1-3.71-3.528c-.072-2.021-.07-4.048,0-6.069a3.683,3.683,0,0,1,3.7-3.54c1.784-.02,3.569-.006,5.354-.005C655.73,104.477,655.812,104.488,655.955,104.5Z" transform="translate(-646.545 -104.471)" fill="#fff" fill-rule="evenodd"/>
        <path id="패스_5" data-name="패스 5" d="M913.619,106.883v3.742h5.614c0,.6.015,1.141-.017,1.683,0,.077-.234.2-.361.2-1.18.016-2.36.009-3.541.009h-1.689v5.6h-1.869v-13.08H921.1c0,.541.017,1.084-.018,1.624-.005.082-.257.21-.4.211-1.672.015-3.344.01-5.016.01Z" transform="translate(-892.925 -104.998)" fill="#fff" fill-rule="evenodd"/>
        <path id="패스_6" data-name="패스 6" d="M811.634,106.8c-.511,0-1,.009-1.487,0-.251-.007-.346.077-.345.338q.01,4.363,0,8.726c0,.27.11.336.353.33.487-.011.975,0,1.49,0v1.858h-5.553v-1.858c.5,0,.989-.011,1.474,0,.27.009.368-.079.367-.36q-.012-4.342,0-8.684c0-.289-.113-.359-.375-.352-.475.014-.951,0-1.462,0v-1.852h5.538Z" transform="translate(-794.762 -104.917)" fill="#fff" fill-rule="evenodd"/>
      </g>
    </g>
    <g id="그룹_445" data-name="그룹 445" transform="translate(5390.164 3688.017)">
      <g id="그룹_5" data-name="그룹 5">
        <g id="그룹_4" data-name="그룹 4">
          <path id="패스_7" data-name="패스 7" d="M.021,27.792V.36A.963.963,0,0,1,.87.009q16.995.01,33.99,0a.967.967,0,0,1,.849.351V27.792a.97.97,0,0,1-.849.351q-16.995-.01-33.989,0A.968.968,0,0,1,.021,27.792ZM18.82,20.3c.1-.077.16-.124.22-.177l5-4.39c.333-.292.369-.288.678.031l7.264,7.508c.085.087.176.167.334.317V23.14q0-9.642,0-19.284c0-.45,0-.451-.455-.451H3.875c-.458,0-.458,0-.458.448q0,9.207,0,18.414v.47c.145-.178.225-.27.3-.367l7.7-10.326c.283-.379.379-.381.681-.009q1.779,2.189,3.556,4.379C16.7,17.7,17.746,18.986,18.82,20.3Z" transform="translate(-0.021 -0.009)" fill="#ced0d3" fill-rule="evenodd"/>
          <path id="패스_8" data-name="패스 8" d="M296.819,84.372A2.766,2.766,0,1,1,294,87.048,2.78,2.78,0,0,1,296.819,84.372Z" transform="translate(-273.013 -78.35)" fill="#ced0d3" fill-rule="evenodd"/>
        </g>
      </g>
    </g>
  </g>
</svg>
