<svg xmlns="http://www.w3.org/2000/svg" width="43.274" height="43.272" viewBox="0 0 43.274 43.272">
  <g id="그룹_440" data-name="그룹 440" transform="translate(-1490 94.47)">
    <path id="패스_66" data-name="패스 66" d="M220.947,670.387a21.637,21.637,0,1,0-21.636,21.636A21.637,21.637,0,0,0,220.947,670.387Z" transform="translate(1312.327 -743.221)" fill="#fff"/>
    <g id="그룹_32" data-name="그룹 32" transform="translate(1500.343 -85.729)">
      <path id="패스_67" data-name="패스 67" d="M185.4,659.744a7.278,7.278,0,0,1,.454-1.174,2.831,2.831,0,0,1,2.468-1.48c1.852-.031,3.707-.015,5.56-.009a.61.61,0,0,1,.654.618.623.623,0,0,1-.676.6q-2.626,0-5.249,0a1.849,1.849,0,0,0-1.983,1.963q0,7.884,0,15.767a1.847,1.847,0,0,0,1.969,1.955q8.486,0,16.972,0a1.856,1.856,0,0,0,1.975-1.974q0-2.624,0-5.246a.605.605,0,0,1,.637-.68.6.6,0,0,1,.577.542c0,.039,0,.078,0,.119,0,1.82.016,3.642,0,5.463a3.037,3.037,0,0,1-2.952,2.994c-.1.005-.207.005-.312.005q-8.414,0-16.826.008a3.157,3.157,0,0,1-2.717-1.326,3.519,3.519,0,0,1-.55-1.393Z" transform="translate(-185.401 -654.677)" fill="#4fbcbd" stroke="#4fbcbd" stroke-width="1" fill-rule="evenodd"/>
      <path id="패스_68" data-name="패스 68" d="M208.374,658.775a2.742,2.742,0,0,1-.737,1.874c-.252.27-.518.526-.779.787q-5.055,5.059-10.115,10.109a1.328,1.328,0,0,1-.542.327c-1.648.471-3.3.924-4.955,1.38-.037.011-.075.024-.115.032a.61.61,0,0,1-.743-.754c.47-1.731.954-3.458,1.437-5.186a.834.834,0,0,1,.214-.34q5.426-5.434,10.858-10.861a2.742,2.742,0,0,1,4,.013,12.776,12.776,0,0,1,.925.98A2.606,2.606,0,0,1,208.374,658.775Zm-6.091-.233c-2.967,2.97-5.945,5.945-8.9,8.9.946.944,1.9,1.9,2.841,2.841l8.9-8.9Zm3.776,1.942c.226-.222.468-.442.688-.687a1.517,1.517,0,0,0-.019-2.073c-.252-.269-.514-.529-.782-.782a1.5,1.5,0,0,0-1.261-.408c-.711.084-1.063.65-1.5,1.067ZM195,670.938c-.77-.763-1.522-1.514-2.271-2.262-.28,1.012-.569,2.05-.867,3.132C192.939,671.508,193.977,671.223,195,670.938Z" transform="translate(-183.721 -655.282)" fill="#4fbcbd" stroke="#4fbcbd" stroke-width="1" fill-rule="evenodd"/>
    </g>
  </g>
</svg>
