<svg xmlns="http://www.w3.org/2000/svg" width="24.173" height="29.316" viewBox="0 0 24.173 29.316">
  <g id="그룹_446" data-name="그룹 446" transform="translate(-1448.739 -220.952)">
    <path id="패스_10" data-name="패스 10" d="M886.172,37.974c-.237-.064-.48-.111-.72-.166H869.3a.945.945,0,0,1-.161.048,4.468,4.468,0,0,0-3.848,4.438q-.01,7.6.005,15.2a4.489,4.489,0,0,0,4.555,4.481c3.483.009,6.966,0,10.449,0h.361v.376c0,1.328.009,2.654,0,3.98a.771.771,0,0,0,.437.789h.344a3.744,3.744,0,0,0,.333-.261q3.181-3.09,6.357-6.189a4.262,4.262,0,0,0,1.326-3.127q.01-7.657,0-15.312A4.458,4.458,0,0,0,886.172,37.974Z" transform="translate(583.447 183.144)" fill="#fff" fill-rule="evenodd"/>
    <path id="패스_11" data-name="패스 11" d="M873.072,47.822a1.8,1.8,0,1,0,1.76,1.806A1.785,1.785,0,0,0,873.072,47.822Z" transform="translate(587.781 190.422)" fill="#e26b7f" fill-rule="evenodd"/>
    <path id="패스_12" data-name="패스 12" d="M875.532,41.618a1.83,1.83,0,0,0-1.861-1.929c-.247-.005-.5,0-.744,0a1.862,1.862,0,0,0-1.946,2.1c.036.637.061,1.276.09,1.915.112,2.457.219,4.918.338,7.377a1.843,1.843,0,0,0,3.681,0c.086-1.6.156-3.2.232-4.8h-.005c.029-.563.057-1.124.083-1.687C875.446,43.6,875.506,42.61,875.532,41.618Z" transform="translate(587.577 184.509)" fill="#e26b7f" fill-rule="evenodd"/>
  </g>
</svg>
