<svg xmlns="http://www.w3.org/2000/svg" width="18.555" height="19.212" viewBox="0 0 18.555 19.212">
  <g id="그룹_25" data-name="그룹 25" transform="translate(-358.294 -33.09)">
    <path id="패스_48" data-name="패스 48" d="M358.83,52.182a1.011,1.011,0,0,1-.214-1.637q1.526-1.592,3.055-3.178c.491-.509.979-1.017,1.434-1.492-.336-.552-.7-1.063-.978-1.618a7.748,7.748,0,0,1,5.29-10.979c.383-.083.775-.126,1.162-.187h1.012c.315.047.631.082.942.144A7.539,7.539,0,0,1,375.56,36.6a7.675,7.675,0,0,1-1.186,9.9,7.541,7.541,0,0,1-6.09,2.055,7.455,7.455,0,0,1-3.521-1.273c-.035-.024-.073-.046-.1-.06-.188.179-.382.346-.559.53q-1.94,2.008-3.873,4.028a1.738,1.738,0,0,1-.737.519h-.376A2.8,2.8,0,0,1,358.83,52.182Zm15.982-11.346a5.729,5.729,0,1,0-5.727,5.744A5.734,5.734,0,0,0,374.812,40.836Z" fill="#55b8bd" fill-rule="evenodd"/>
  </g>
</svg>
