<svg xmlns="http://www.w3.org/2000/svg" width="431.406" height="40.984" viewBox="0 0 431.406 40.984">
  <g id="그룹_422" data-name="그룹 422" transform="translate(-788 -23.325)">
    <path id="패스_147" data-name="패스 147" d="M14.852,0h401.7c8.2,0,14.852,5.373,14.852,12V28.984c0,6.627-6.649,12-14.852,12H14.852c-8.2,0-14.852-5.373-14.852-12V12C0,5.373,6.649,0,14.852,0Z" transform="translate(788 23.325)" fill="#fff"/>
    <g id="그룹_10" data-name="그룹 10" transform="translate(802.089 31.414)">
      <path id="패스_31" data-name="패스 31" d="M-1982.5,1140.881a1.307,1.307,0,0,1-.276-2.115q1.97-2.054,3.944-4.1c.633-.657,1.263-1.315,1.852-1.926-.435-.716-.9-1.375-1.264-2.092a10,10,0,0,1,6.831-14.175c.493-.106,1-.162,1.5-.242h1.306c.407.061.814.106,1.216.187a9.727,9.727,0,0,1,6.491,4.344,9.913,9.913,0,0,1-1.53,12.784,9.744,9.744,0,0,1-7.864,2.655,9.663,9.663,0,0,1-4.545-1.643c-.046-.032-.1-.061-.125-.078-.245.23-.5.446-.724.684q-2.5,2.594-5,5.2a2.246,2.246,0,0,1-.952.669h-.483C-1982.25,1140.984-1982.382,1140.944-1982.5,1140.881Zm20.637-14.65a7.407,7.407,0,0,0-7.4-7.387,7.4,7.4,0,0,0-7.393,7.415,7.4,7.4,0,0,0,7.4,7.389A7.409,7.409,0,0,0-1961.865,1126.231Z" transform="translate(1983.194 -1116.23)" fill="#6d6f72" fill-rule="evenodd"/>
    </g>
  </g>
</svg>
