<svg xmlns="http://www.w3.org/2000/svg" xmlns:xlink="http://www.w3.org/1999/xlink" width="42" height="44" viewBox="0 0 42 44">
  <defs>
    <filter id="ellipse" x="0" y="0" width="42" height="42" filterUnits="userSpaceOnUse">
      <feOffset input="SourceAlpha"/>
      <feGaussianBlur stdDeviation="1" result="blur"/>
      <feFlood flood-opacity="0.122"/>
      <feComposite operator="in" in2="blur"/>
      <feComposite in="SourceGraphic"/>
    </filter>
    <filter id="path" x="0" y="2" width="42" height="42" filterUnits="userSpaceOnUse">
      <feOffset dy="2" input="SourceAlpha"/>
      <feGaussianBlur stdDeviation="1" result="blur-2"/>
      <feFlood flood-opacity="0.239"/>
      <feComposite operator="in" in2="blur-2"/>
      <feComposite in="SourceGraphic"/>
    </filter>
  </defs>
  <g id="return" transform="translate(3 3)">
    <g transform="matrix(1, 0, 0, 1, -3, -3)" filter="url(#ellipse)">
      <circle id="ellipse-2" data-name="ellipse" cx="18" cy="18" r="18" transform="translate(3 3)" fill="#4cb5ab"/>
    </g>
    <g transform="matrix(1, 0, 0, 1, -3, -3)" filter="url(#path)">
      <path id="path-2" data-name="path" d="M18,0A18,18,0,1,1,0,18,18,18,0,0,1,18,0Z" transform="translate(3 3)" fill="#4cb5ab"/>
    </g>
    <path id="path-3" data-name="path" d="M25.1,13.8v4H11.9l3.6-3.6-1.4-1.4-6,6,6,6,1.4-1.4-3.6-3.6H27.1v-6Z" transform="translate(-0.1 0.2)" fill="#fff" fill-rule="evenodd"/>
  </g>
</svg>
