<svg id="그룹_445" data-name="그룹 445" xmlns="http://www.w3.org/2000/svg" width="38.17" height="34.087" viewBox="0 0 38.17 34.087">
  <path id="패스_19" data-name="패스 19" d="M785.375,363.261c.074-.689.14-1.38.23-2.067a12.14,12.14,0,0,1,3.7-7.684,15.294,15.294,0,0,1,6.355-3.36,34.54,34.54,0,0,1,9.4-1.13h4.849v-.426c0-1.615.007-3.234,0-4.849a1.41,1.41,0,0,1,.854-1.432,1.355,1.355,0,0,1,1.606.428q5.314,5.3,10.62,10.616a1.377,1.377,0,0,1,0,2.225q-5.32,5.317-10.645,10.645a1.324,1.324,0,0,1-2.1-.014,1.734,1.734,0,0,1-.313-.959c-.031-1.628-.013-3.254-.013-4.882v-.435c-.131-.009-.236-.023-.345-.023-2.4.023-4.8,0-7.188.083a19.326,19.326,0,0,0-6.495,1.162,8.624,8.624,0,0,0-5.511,6.535,23.111,23.111,0,0,0-.263,7.375,1.281,1.281,0,0,1,.02.552,1.225,1.225,0,0,1-.426.588.553.553,0,0,1-.73-.189,2.113,2.113,0,0,1-.327-.493,39.351,39.351,0,0,1-2.932-8.058c-.135-.628-.225-1.266-.335-1.9Z" transform="translate(-785.375 -342.196)" fill="#ced0d3" fill-rule="evenodd"/>
</svg>
