<svg xmlns="http://www.w3.org/2000/svg" width="27.719" height="17.416" viewBox="0 0 27.719 17.416">
  <g id="그룹_371" data-name="그룹 371" transform="translate(-196 -39.866)">
    <path id="패스_145" data-name="패스 145" d="M-827.854-676.046l-1.067-.114v-2.759h5.364v2.722l-1.05.177c0,.908-.019,1.832,0,2.756q.075,3.016.187,6.031a2.227,2.227,0,0,0,2.194,2.249,2.2,2.2,0,0,0,2.193-1.829,11.265,11.265,0,0,0,.194-2.011c.022-2.388.009-4.777.009-7.206l-1.049-.132V-678.9h5.546v2.722l-1.064.144c0,2.544.033,5.058-.016,7.569a25.3,25.3,0,0,1-.343,3.011c-.341,2.413-1.951,3.577-4.174,3.863a6.782,6.782,0,0,1-4.962-1,4.39,4.39,0,0,1-1.949-3.676c-.061-2.891-.018-5.784-.018-8.677Z" transform="translate(1024.921 718.785)" fill="#fff" fill-rule="evenodd"/>
    <path id="패스_146" data-name="패스 146" d="M-752.891-676.031l-1.007-.111v-2.752h11.7v4.436h-2.938c-.028-.506-.054-.992-.085-1.553h-4.3v3.917h3.984v3.059H-749.5v4.2l.987.118v2.945h-5.374v-2.917l1-.165Z" transform="translate(965.915 718.765)" fill="#fff" fill-rule="evenodd"/>
  </g>
</svg>
