<svg id="그룹_430" data-name="그룹 430" xmlns="http://www.w3.org/2000/svg" width="31.104" height="16.858" viewBox="0 0 31.104 16.858">
  <path id="패스_50" data-name="패스 50" d="M17.452,319.028a2.351,2.351,0,0,0,.191-.183,22.745,22.745,0,0,1,8.948-6.83,15.987,15.987,0,0,1,13.491.285,22.91,22.91,0,0,1,8.3,6.57,1.823,1.823,0,0,0,.171.159v.12c-.081.081-.171.163-.246.254a22.1,22.1,0,0,1-10.952,7.477,15.594,15.594,0,0,1-10.624-.659,22.748,22.748,0,0,1-9.09-6.891,1.8,1.8,0,0,0-.191-.181Zm9.819-1.4a5.907,5.907,0,0,0,10.588,4.806,5.874,5.874,0,0,0-.537-7.361,5.663,5.663,0,0,0-3.361-1.8,5.841,5.841,0,0,0-4.981,1.493.577.577,0,0,1-.069-.055c-.21-.234-.431-.458-.621-.708a.368.368,0,0,0-.511-.13,20.062,20.062,0,0,0-5.937,3.715c-.533.476-1.038.981-1.569,1.489a20.771,20.771,0,0,0,7.674,5.265,7.383,7.383,0,0,1-2.012-6.954c.427.067.816.132,1.2.2C27.177,317.59,27.216,317.61,27.271,317.628Zm18.449,1.459a20.568,20.568,0,0,0-7.668-5.253,7.361,7.361,0,0,1,0,10.51A20.667,20.667,0,0,0,45.72,319.087Z" transform="translate(-17.452 -310.66)" fill="#ced0d3" fill-rule="evenodd"/>
  <path id="패스_51" data-name="패스 51" d="M23.37,315.656a3.847,3.847,0,0,0,1.9,4.616,3.924,3.924,0,0,0,3.99-6.746A3.833,3.833,0,0,0,24.4,314c.614.692,1.229,1.388,1.9,2.146C25.256,315.974,24.312,315.815,23.37,315.656Z" transform="translate(-11.54 -308.369)" fill="#ced0d3" fill-rule="evenodd"/>
  <path id="패스_52" data-name="패스 52" d="M23.37,315.656c.942.159,1.886.317,2.934.488-.673-.759-1.288-1.455-1.9-2.146a3.833,3.833,0,0,1,4.86-.472,3.924,3.924,0,0,1-3.99,6.746A3.847,3.847,0,0,1,23.37,315.656Z" transform="translate(-11.539 -308.369)" fill="#ced0d3" fill-rule="evenodd"/>
</svg>
