<svg xmlns="http://www.w3.org/2000/svg" width="8.374" height="8.029" viewBox="0 0 8.374 8.029">
  <g id="그룹_11" data-name="그룹 11" transform="translate(-588.03 -484.895)">
    <path id="패스_20" data-name="패스 20" d="M596.4,488.171v.229l-.007.014a.819.819,0,0,1-.325.529.088.088,0,0,0-.009.074.821.821,0,0,1-.251,1,.066.066,0,0,0-.022.1.8.8,0,0,1-.178.931.2.2,0,0,0-.061.26.821.821,0,0,1-.787,1.066q-2.22,0-4.441,0c-.106,0-.106,0-.106-.1q0-2.09,0-4.18a.179.179,0,0,1,.064-.146c.517-.473,1.029-.953,1.549-1.422a1.807,1.807,0,0,0,.621-1.193.441.441,0,0,1,.426-.43.911.911,0,0,1,.91.459,1.459,1.459,0,0,1,.165,1.131c-.074.291-.2.57-.295.855-.011.033-.021.067-.037.111h.11c.622,0,1.243,0,1.864-.005a.808.808,0,0,1,.779.6C596.383,488.091,596.4,488.13,596.4,488.171Z" fill="#767676" fill-rule="evenodd"/>
    <path id="패스_21" data-name="패스 21" d="M588.03,487.664a.325.325,0,0,1,.348-.211c.328.005.654,0,.982,0a.277.277,0,0,1,.309.309v4.85a.275.275,0,0,1-.307.308c-.326,0-.654-.006-.981,0a.327.327,0,0,1-.351-.205Z" fill="#767676" fill-rule="evenodd"/>
  </g>
</svg>
