<svg xmlns="http://www.w3.org/2000/svg" width="124" height="60" viewBox="0 0 124 60">
  <g id="그룹_442" data-name="그룹 442" transform="translate(-2458 373)">
    <path id="사각형_169" data-name="사각형 169" d="M7,0H124a0,0,0,0,1,0,0V60a0,0,0,0,1,0,0H7a7,7,0,0,1-7-7V7A7,7,0,0,1,7,0Z" transform="translate(2458 -373)" fill="#fff"/>
    <path id="사각형_171" data-name="사각형 171" d="M5,0H122a0,0,0,0,1,0,0V56a0,0,0,0,1,0,0H5a5,5,0,0,1-5-5V5A5,5,0,0,1,5,0Z" transform="translate(2460 -371)" fill="#4fbcbd"/>
    <text id="New" transform="translate(2522 -332.964)" fill="#fff" font-size="35" font-family="YDIYGO350"><tspan x="-36.243" y="0">New</tspan></text>
  </g>
</svg>
